<svg xmlns="http://www.w3.org/2000/svg" xml:space="preserve" viewBox="0 0 92.058 63.71"><path fill="#283373" d="M92.058 30.105C92.058 13.532 71.454 0 46.036 0 20.596.015 0 13.532 0 30.105v1.757C0 49.454 18.013 63.71 46.022 63.71c28.178 0 46.014-14.256 46.014-31.848v-1.757zm0 0"/><path fill="#ffcf00" d="M90.279 30.105c-.001 15.629-19.808 28.312-44.244 28.312-24.435 0-44.257-12.683-44.257-28.312 0-15.628 19.806-28.311 44.242-28.311 24.435 0 44.257 12.66 44.257 28.311"/><path fill="#fff" d="M31.33 21.165c-.014.037-.472.51-.17.871.702.886 2.858 1.396 5.028.908 1.307-.288 2.968-1.624 4.577-2.894 1.735-1.38 3.477-2.775 5.212-3.33 1.853-.582 3.027-.339 3.824-.088.85.259 1.87.812 3.478 2.023 3.02 2.267 15.193 12.905 17.312 14.735 1.698-.753 9.22-4 19.445-6.253-.886-5.462-4.215-10.453-9.243-14.535-7.013 2.953-15.591 4.48-23.963.398-.038-.014-4.578-2.17-9.051-2.06-6.653.156-9.532 3.027-12.588 6.084zm0 0"/><path fill="#fff" d="M70.095 34.55c-.147-.133-14.307-12.536-17.518-14.95-1.853-1.403-2.894-1.764-3.972-1.89-.56-.08-1.336.037-1.89.185-1.49.398-3.44 1.72-5.175 3.078-1.793 1.44-3.499 2.783-5.064 3.138-2.008.458-4.459-.073-5.574-.826-.457-.303-.775-.664-.93-1.019-.413-.967.34-1.72.473-1.853l3.912-4.237c.458-.45.908-.908 1.38-1.359-1.269.17-2.435.488-3.572.79-1.418.399-2.776.775-4.156.775-.57.001-3.67-.508-4.254-.656-3.536-.967-6.651-1.912-11.28-4.082-5.559 4.134-9.28 9.316-10.357 15 .789.215 2.073.591 2.627.724 12.587 2.798 16.492 5.685 17.215 6.275.776-.855 1.868-1.401 3.116-1.401 1.402-.001 2.65.7 3.403 1.778a4.774 4.774 0 0 1 3.006-1.063c.583 0 1.188.118 1.794.325 1.417.494 2.155 1.44 2.532 2.288a4.355 4.355 0 0 1 1.757-.376c.678 0 1.38.147 2.095.45 2.326 1.004 2.688 3.27 2.48 4.99.17-.022.34-.022.51-.022 2.761 0 4.99 2.23 4.99 4.99a5.06 5.06 0 0 1-.605 2.363c.753.413 2.665 1.38 4.326 1.152 1.344-.17 1.853-.62 2.023-.886.132-.17.265-.378.132-.533l-3.55-3.95s-.591-.546-.4-.774c.207-.222.569.096.813.302 1.816 1.514 4.008 3.78 4.008 3.78.037.022.185.325.997.458.701.133 1.949.051 2.798-.665.228-.17.435-.398.627-.62-.022.015-.022.015-.037.037.9-1.152-.096-2.347-.096-2.347l-4.141-4.644s-.582-.554-.398-.775c.192-.193.569.087.812.316 1.307 1.1 3.182 2.968 4.954 4.71.34.244 1.912 1.226 3.971-.133 1.247-.834 1.513-1.838 1.469-2.59-.09-1.005-.865-1.72-.865-1.72l-5.67-5.693s-.605-.51-.376-.775c.168-.221.56.096.81.303 1.795 1.513 6.69 5.994 6.69 5.994.073.06 1.756 1.248 3.838-.074.73-.472 1.225-1.195 1.262-2.022.074-1.418-.945-2.267-.945-2.267"/><path fill="#fff" d="M42.633 41.762c-.864-.015-1.83.517-1.964.435-.074-.036.058-.39.132-.605.074-.207 1.248-3.684-1.565-4.894-2.155-.923-3.477.118-3.935.59-.11.11-.17.11-.192-.037-.036-.626-.317-2.324-2.185-2.893-2.665-.812-4.37 1.041-4.806 1.72a3.072 3.072 0 0 0-3.042-2.701c-1.698 0-3.079 1.38-3.1 3.078a3.083 3.083 0 0 0 3.085 3.078 3 3 0 0 0 2.134-.863c.014.013.014.036.014.11-.132.752-.375 3.536 2.533 4.665 1.174.458 2.156.118 2.99-.45.244-.17.28-.096.244.133-.11.716.022 2.244 2.178 3.115 1.624.664 2.584-.015 3.226-.605.289-.244.363-.207.363.17.073 2.06 1.793 3.705 3.875 3.705a3.878 3.878 0 0 0 3.89-3.875c0-2.134-1.734-3.854-3.875-3.876"/><path fill="#283373" d="M70.642 33.05c-4.363-3.816-14.455-12.586-17.194-14.624-1.572-1.173-2.628-1.794-3.558-2.081a5.672 5.672 0 0 0-1.757-.266c-.694-.001-1.432.132-2.23.383-1.757.56-3.528 1.963-5.234 3.307l-.097.074c-1.587 1.262-3.226 2.569-4.459 2.835a8.272 8.272 0 0 1-1.646.183c-1.373 0-2.643-.391-3.093-.997-.081-.096-.022-.265.148-.494l.022-.037 3.831-4.142c3.005-3.004 5.84-5.84 12.403-5.987h.316c4.068 0 8.15 1.831 8.6 2.038 3.817 1.875 7.752 2.82 11.716 2.82 4.12 0 8.394-1.019 12.875-3.078a36.627 36.627 0 0 0-1.55-1.233c-3.935 1.705-7.678 2.569-11.303 2.569-3.683 0-7.39-.886-10.962-2.643-.192-.097-4.688-2.216-9.354-2.216h-.376c-5.5.133-8.586 2.082-10.683 3.78-2.023.06-3.758.531-5.33.967-1.381.378-2.584.717-3.744.717-.472 0-1.336-.037-1.417-.037-1.337-.037-8.107-1.698-13.488-3.743-.554.4-1.078.798-1.595 1.196 5.618 2.304 12.461 4.075 14.632 4.23.604.037 1.246.111 1.889.111 1.43 0 2.848-.391 4.229-.79.81-.229 1.719-.472 2.664-.664-.244.243-.51.494-.753.76l-3.89 4.208c-.302.303-.99 1.137-.531 2.156.169.42.53.812 1.017 1.137.93.62 2.592 1.056 4.142 1.056.582 0 1.128-.051 1.638-.17 1.646-.354 3.351-1.734 5.16-3.174 1.454-1.152 3.522-2.606 5.087-3.041.435-.11.981-.191 1.417-.191.133-.001.244-.001.362.02 1.033.134 2.037.495 3.831 1.832 3.197 2.399 17.393 14.801 17.518 14.934 0 0 .908.79.857 2.075-.037.724-.436 1.366-1.137 1.817-.605.376-1.226.583-1.853.583-.945 0-1.602-.45-1.646-.473-.052-.037-4.91-4.495-6.689-5.987-.28-.229-.568-.457-.827-.457a.493.493 0 0 0-.383.17c-.28.346.036.834.398 1.136l5.67 5.706s.701.664.775 1.535c.037.946-.413 1.736-1.344 2.342-.657.435-1.336.664-2 .664-.871 0-1.477-.399-1.624-.495l-.812-.789c-1.5-1.46-3.027-2.988-4.142-3.911-.266-.23-.568-.437-.849-.437a.514.514 0 0 0-.362.148c-.132.156-.22.4.096.835.134.17.282.318.282.318l4.141 4.65c.037.037.85 1.02.096 1.986l-.156.191c-.132.127-.258.26-.376.378-.701.583-1.646.642-2.023.642-.207 0-.391-.022-.568-.06-.414-.073-.68-.191-.812-.339l-.052-.058c-.229-.221-2.31-2.362-4.046-3.794-.228-.192-.509-.436-.812-.436a.5.5 0 0 0-.376.17c-.34.376.169.923.39 1.137l3.536 3.89c0 .036-.059.11-.133.243-.132.17-.546.605-1.83.76-.155.015-.325.037-.473.037-1.321 0-2.724-.642-3.462-1.026.325-.694.51-1.47.51-2.23a5.274 5.274 0 0 0-5.272-5.27h-.184c.088-1.322-.096-3.84-2.665-4.954-.739-.317-1.477-.487-2.215-.487a4.63 4.63 0 0 0-1.602.28c-.532-1.04-1.417-1.794-2.576-2.192a5.744 5.744 0 0 0-1.89-.339c-1.078.001-2.06.326-2.946.946-.849-1.056-2.119-1.683-3.455-1.683a4.43 4.43 0 0 0-3.137 1.307c-1.1-.835-5.463-3.61-17.127-6.253a55.62 55.62 0 0 1-2.666-.739c-.133.62-.222 1.263-.303 1.905 0 0 2.157.51 2.57.605 11.93 2.65 15.857 5.404 16.522 5.921a4.47 4.47 0 0 0 4.12 6.18 3.7 3.7 0 0 0 .81-.083c.378 1.816 1.551 3.197 3.367 3.898a4.295 4.295 0 0 0 1.587.303c.34 0 .679-.037 1.018-.133.34.849 1.1 1.904 2.776 2.59.592.244 1.175.355 1.758.355.473 0 .93-.074 1.366-.243a5.27 5.27 0 0 0 4.872 3.27 5.222 5.222 0 0 0 3.78-1.61c.849.473 2.65 1.322 4.459 1.322.229 0 .458-.016.686-.038 1.795-.221 2.644-.923 3.02-1.469a2.11 2.11 0 0 0 .193-.303c.413.111.886.222 1.432.222.982 0 1.927-.34 2.894-1.034.944-.686 1.608-1.646 1.697-2.48v-.037c.325.06.642.097.967.097 1.019 0 2-.325 2.968-.945 1.83-1.21 2.155-2.776 2.118-3.802.318.081.643.096.982.096.945 0 1.89-.28 2.776-.849 1.137-.716 1.816-1.83 1.927-3.137a4.227 4.227 0 0 0-.606-2.533c3.085-1.32 10.113-3.89 18.389-5.765a20.055 20.055 0 0 0-.267-1.905c-10.033 2.304-17.496 5.537-19.371 6.364M42.633 49.249c-1.941 0-3.529-1.514-3.588-3.44 0-.17-.022-.606-.398-.606-.148 0-.28.096-.436.23-.434.398-.959.796-1.77.796-.362 0-.761-.08-1.174-.25-2.06-.828-2.082-2.245-2.001-2.813.015-.155.037-.303-.081-.436l-.11-.097h-.134c-.11 0-.207.037-.362.155-.583.414-1.166.62-1.735.62a2.78 2.78 0 0 1-.981-.184c-2.702-1.063-2.496-3.61-2.363-4.37.014-.148-.023-.281-.119-.355l-.183-.156-.17.133c-.532.51-1.21.797-1.95.797a2.823 2.823 0 0 1-2.812-2.82 2.795 2.795 0 0 1 2.813-2.798c1.402 0 2.591 1.063 2.776 2.458l.096.753.42-.642c.037-.074 1.189-1.794 3.263-1.794.4.001.82.06 1.233.193 1.661.51 1.95 2.023 1.986 2.643.037.362.28.377.34.377.147 0 .243-.09.317-.17.324-.318 1.003-.864 2.059-.864.493 0 1.003.11 1.55.339 2.65 1.128 1.439 4.494 1.439 4.531-.23.548-.252.799-.024.946l.096.06h.074c.118 0 .266-.06.51-.133.361-.133.908-.303 1.417-.303 1.986.015 3.61 1.646 3.61 3.61 0 1.986-1.624 3.588-3.61 3.588"/></svg>
