<svg xmlns="http://www.w3.org/2000/svg" viewBox="0 0 477.077 477.027"><path fill="#00f" d="M13.894 159.341c14.998-10.562 26.413-20.475 45-24.575 40.143-8.853 81.918 8.636 116 28.588 39.008 22.834 75.78 49.99 124 39.1 48.45-10.94 89.646-48.604 98.576-98.112 2.712-15.038 4.594-39.692-6.79-51.83-17.46-18.616-46.118-30.455-69.786-38.673C231.36-17.251 130.61 4.654 64.72 73.432c-20.9 21.816-45.56 55.305-50.826 85.91z"/><path fill="#9db7dd" d="M275.24 472.204c-16.325-8.365-30.41-13.86-42.684-28.408-26.506-31.42-30.452-76.536-28.64-115.987 2.073-45.153 9.01-90.336-23.054-127.96-32.219-37.802-84.72-56.756-132.701-41.637-14.574 4.593-37.275 14.393-42.726 30.115-8.36 24.115-5.513 54.992-1.781 79.767 14.118 93.72 80.366 172.723 171.896 199.067 29.033 8.357 70.149 14.613 99.69 5.042z"/><path fill="#c3c4c9" d="M425.171 87.67c.855 18.325 3.086 33.278-3.439 51.158-14.092 38.616-51.282 64.46-86.418 82.492-40.212 20.64-82.869 37.073-99.583 83.595-16.795 46.744-7.153 101.723 29.811 135.847 11.23 10.365 31.016 25.195 47.367 22.112 25.082-4.729 50.462-22.544 70.106-38.094 74.312-58.824 109.949-155.574 87.324-248.094-7.176-29.348-22.18-68.136-45.166-89.016z"/></svg>
