<?xml version="1.0" standalone="no"?>
<!DOCTYPE svg PUBLIC "-//W3C//DTD SVG 1.1//EN" "http://www.w3.org/Graphics/SVG/1.1/DTD/svg11.dtd">
<svg xmlns="http://www.w3.org/2000/svg">
<defs >
<font id="Alkatra" horiz-adv-x="740" ><font-face
    font-family="Alkatra"
    units-per-em="1000"
    panose-1="3 8 9 2 4 3 2 2 2 0"
    ascent="1095"
    descent="-589"
    alphabetic="0" />
<glyph unicode=" " horiz-adv-x="245" />
<glyph unicode="!" horiz-adv-x="207" d="M100 630Q102 652 108 666T128 688T162 696Q198 696 211 683T224 646Q224 641 224 636T222 624L178 429Q162 356 153 310T137 238T119 204T89 194Q82 194 77 199T73 211L100 630ZM80 -16Q52 -16 32 3T11 53Q11 90 35 110T90
131Q119 131 138 114T158 63Q158 29 135 7T80 -16Z" />
<glyph unicode="&quot;" horiz-adv-x="308" d="M86 930Q87 938 91 941T102 944H144Q170 944 184 934T186 884L127 702Q116 667 109 657T82 646Q75 646 69 653T64 668L86 930ZM226 674Q227 682 231 685T242 688H284Q310 688 324 678T326 628L267 446Q256 411 249
401T222 390Q215 390 209 397T204 412L226 674Z" />
<glyph unicode="#" horiz-adv-x="616" d="M152 -170Q139 -170 128 -153T115 -94Q114 -84 114 -73T114 -49Q114 -22 116 12T125 88L222 671Q224 686 230 691T245 696Q257 696 266 688T280 656T286 589Q286 562 283 526T272 441L180 -136Q178 -150 172 -160T152
-170ZM30 113Q17 113 13 117T9 135Q9 145 16 156T38 176T77 185L510 191Q521 191 539 192T564 193Q576 193 579 189T582 176Q582 163 576 150T554 129T510 120L30 113ZM372 -170Q365 -170 358 -165T346 -149T338 -120T335 -76Q335 -47 338 -6T350 88L442 671Q444
686 450 691T465 696Q477 696 486 688T500 656T506 589Q506 562 503 526T492 441L400 -136Q398 -150 392 -160T372 -170ZM57 333Q45 333 42 339T39 355Q39 365 46 376T68 396T107 405L540 411Q552 411 568 412T594 413Q606 413 609 409T612 396Q612 383 606 370T584
349T540 340L57 333Z" />
<glyph unicode="$" horiz-adv-x="580" d="M391 684L265 -77Q263 -90 255 -99T232 -108Q216 -108 207 -91T200 -53L333 779Q335 794 343 798T360 802Q371 801 380 791T395 767T400 743Q399 724 396 710T391 684ZM36 84Q36 117 41 131T58 145Q66 145 83 133T126
106T188 79T266 67Q301 67 332 77T383 107T403 159Q403 189 389 208T351 243T299 277L236 317Q202 339 169 362T114 417T92 500Q92 562 129 606T227 673T360 696Q437 696 474 688T522 664T534 629Q534 601 526 587T509 572Q501 572 491 577T463 590Q449 597 416
606T335 616Q307 616 279 607T232 578T213 528Q213 501 228 482T266 448T314 422L369 396Q408 378 446 356T510 300T536 208Q536 137 498 88T395 13T247 -13Q147 -13 92 14T36 84Z" />
<glyph unicode="%" horiz-adv-x="550" d="M19 -15Q7 -15 0 -4T-7 21Q-6 34 10 60T52 119L512 688Q518 696 525 696T538 696Q551 695 557 685T563 659Q563 645 554 630T533 602L51 5Q44 -4 36 -9T19 -15ZM162 422Q104 422 71 458T38 546Q38 587 56 621T107 675T184
696Q246 696 276 660T307 573Q307 531 289 497T238 442T162 422ZM168 491Q196 491 213 511T231 566Q231 593 219 610T181 629Q151 631 133 609T114 555Q114 527 127 509T168 491ZM384 -12Q326 -12 293 24T260 112Q260 153 278 187T329 241T406 262Q468 262 498
226T529 139Q529 97 511 63T460 8T384 -12ZM390 57Q418 57 435 77T453 132Q453 159 441 176T403 195Q373 197 355 175T336 121Q336 93 349 75T390 57Z" />
<glyph unicode="&amp;" horiz-adv-x="665" d="M533 -15Q523 -15 510 -9T474 15T417 67T332 157L185 318Q151 356 128 385T94 445T82 513Q82 595 137 645T290 696Q393 696 438 655T483 547Q483 508 466 472T419 405T357 354T292 324L262 374Q306 405 336 447T367
534Q367 572 347 594T285 616Q245 616 220 594T194 528Q194 495 216 456T271 383L465 176Q506 133 544 107T631 61Q642 57 653 53T665 40Q665 32 650 23T612 5T567 -9T533 -15ZM212 372L236 329Q206 322 182 301T144 249T129 185Q129 129 163 98T253 67Q310 67
356 87T433 136T476 190Q494 227 497 257T501 312T507 355Q512 369 531 378T572 391T605 395Q612 395 616 391T620 378Q620 296 588 225T501 100T375 17T230 -13Q123 -13 63 31T2 170Q2 215 22 250T74 312T142 353T212 372Z" />
<glyph unicode="&apos;" horiz-adv-x="168" d="M86 675Q87 683 91 686T102 689H144Q170 689 184 679T186 629L127 447Q116 412 109 402T82 391Q75 391 69 398T64 413L86 675Z" />
<glyph unicode="(" horiz-adv-x="349" d="M318 689Q248 669 194 621T101 504T44 358T24 199Q24 115 45 47T100 -69T174 -144T253 -170Q269 -170 278 -164T287 -147Q287 -142 285 -138T273 -129Q251 -118 225 -97T176 -37T138 60T123 206Q123 263 135 329T174 458T248
572T364 651Q375 656 379 660T384 669Q384 680 378 688T357 696Q351 696 345 695T318 689Z" />
<glyph unicode=")" horiz-adv-x="349" d="M36 -164Q106 -144 160 -96T253 21T310 167T330 326Q330 410 309 478T254 594T180 669T101 695Q85 695 76 689T67 672Q67 667 69 663T81 654Q103 644 129 622T178 562T216 465T231 319Q231 262 219 196T180 67T106 -47T-10
-126Q-20 -130 -25 -134T-30 -144Q-30 -155 -23 -163T-3 -171Q3 -171 10 -170T36 -164Z" />
<glyph unicode="*" horiz-adv-x="376" d="M29 538Q29 561 44 575T81 590Q89 590 96 587T110 581L157 555Q167 549 172 554T174 569L156 619Q153 625 152 631T150 644Q150 668 166 682T204 696Q223 696 236 685T249 650Q249 642 247 636T243 623L221 569Q217 559
222 554T238 555L282 578Q290 583 298 586T316 590Q335 590 348 579T361 544Q361 522 346 507T309 491Q305 491 302 492T295 494L255 502Q243 504 240 498T245 483L294 440Q309 427 309 405Q309 384 294 369T257 353Q241 353 229 365T212 396L203 451Q202 464 194
465T183 453L165 391Q160 375 147 364T115 352Q96 352 83 364T70 399Q70 415 78 426T96 444L145 483Q156 492 153 498T138 503L122 499Q93 493 86 492T74 491Q56 491 43 504T29 538Z" />
<glyph unicode="+" horiz-adv-x="550" d="M488 318Q500 318 503 314T506 301Q506 288 500 275T478 254T434 245L70 237Q58 237 55 243T52 259Q52 269 59 280T81 299T120 308L488 318ZM334 429L300 108Q298 84 288 69T266 47T243 40Q233 40 228 43T222 58Q222 65
224 82T227 107L258 433Q261 461 270 476T294 498T321 505Q329 505 334 502T339 487Q339 478 338 465T334 429Z" />
<glyph unicode="," horiz-adv-x="215" d="M-20 -145Q-20 -139 -17 -136T-8 -130Q36 -113 57 -85T78 -22Q78 -11 75 -2T54 35L110 -10Q95 -16 79 -16Q51 -16 31 3T11 53Q11 90 35 110T90 131Q126 131 144 105T163 40Q163 -12 147 -51T106 -117T53 -156T2 -170Q-7
-170 -13 -162T-20 -145Z" />
<glyph unicode="-" horiz-adv-x="368" d="M249 285Q288 287 295 287T303 287Q315 287 318 283T321 270Q321 257 315 245T293 224T249 214L70 207Q69 207 69 207T67 207Q55 207 52 213T49 229Q49 244 64 261T117 279L249 285Z" />
<glyph unicode="." horiz-adv-x="207" d="M80 -16Q52 -16 32 3T11 53Q11 90 35 110T90 131Q119 131 138 114T158 63Q158 29 135 7T80 -16Z" />
<glyph unicode="/" horiz-adv-x="256" d="M262 641Q262 622 260 608T254 582L62 -136Q58 -150 52 -160T32 -170Q22 -170 11 -152T-1 -118Q-1 -105 1 -88T9 -51L196 671Q200 686 206 691T221 696Q237 696 249 677T262 641Z" />
<glyph unicode="0" horiz-adv-x="580" d="M261 -16Q153 -16 96 60T38 283Q38 373 61 448T127 579T225 665T348 696Q461 696 512 620T563 398Q563 307 541 232T478 101T382 15T261 -16ZM328 616Q291 616 262 590T213 519T182 415T171 292Q171 185 194 125T277 64Q320
64 354 104T410 214T431 378Q431 492 408 554T328 616Z" />
<glyph unicode="1" horiz-adv-x="580" d="M14 5Q14 23 30 37T68 54L266 77L216 27L273 564L137 525Q113 518 95 511T71 504Q61 504 56 508T51 521Q51 537 69 557T134 599L315 681Q324 685 337 690T361 696Q393 696 396 671T392 584L364 319Q356 240 351 175T351
53L304 81L512 112Q523 114 529 115T538 117Q550 117 550 103Q550 92 546 75T532 40T510 12T481 0H228Q176 0 134 -3T64 -9T30 -12Q14 -12 14 5Z" />
<glyph unicode="2" horiz-adv-x="580" d="M104 133L226 255Q283 312 321 352T378 428T398 507Q398 565 369 590T294 616Q252 616 221 602T167 573Q147 561 134 554T109 547Q101 547 95 555T87 576T84 604Q84 628 109 649T181 683T297 696Q368 696 420 678T501
622T530 526Q530 472 511 429T460 348T392 279T319 216L134 56L138 68L480 116Q499 119 514 121T539 123Q551 123 551 109Q551 97 547 79T533 43T512 13T483 0H366Q344 0 311 -1T242 -3T171 -6T113 -9T81 -10Q67 -10 60 -2T51 17T48 37Q48 57 58 77T104 133Z" />
<glyph unicode="3" horiz-adv-x="580" d="M373 367L384 398Q426 390 459 367T512 308T532 224Q532 152 492 98T385 14T236 -16Q156 -16 108 0T40 41T19 95Q19 122 24 135T41 148Q49 148 69 136T118 106T180 77T248 64Q293 64 327 86T380 144T399 223Q399 279 370
309T297 346L377 357Q353 344 324 333T267 314T217 307Q204 307 191 320T170 352T162 392Q162 407 169 415T186 423Q204 423 230 421T286 415T340 408T378 405L322 390Q352 409 372 445T392 519Q392 569 366 592T295 616Q259 616 225 601T164 572Q144 562 132 555T109
547Q102 547 97 554T88 575T84 604Q84 630 116 650T201 683T318 696Q408 696 463 656T518 544Q518 497 498 464T446 407T373 367Z" />
<glyph unicode="4" horiz-adv-x="580" d="M6 194Q6 214 11 229T36 270T96 343L340 628Q364 656 379 670T410 690T446 695H481Q499 695 506 686T514 649Q514 625 512 601T507 545T498 466L448 -8H368Q359 -8 353 -1T344 20T341 53Q341 80 343 113T348 178T353 234L396
640L425 611L83 201L53 241H386Q429 241 467 244T531 250T564 253Q572 253 576 249T580 236Q580 221 560 205T511 177T453 166L34 164Q19 164 13 170T6 194Z" />
<glyph unicode="5" horiz-adv-x="580" d="M24 91Q24 118 29 131T46 144Q54 144 71 132T113 104T168 76T234 64Q281 64 316 87T370 152T390 245Q390 301 362 330T282 360Q249 360 217 350T159 331T121 321Q98 321 98 368Q98 373 101 399T110 463L140 668Q142 680
155 680H316Q387 680 428 684T491 692T523 696Q534 696 538 693T543 674Q543 660 539 643T528 611T512 586T491 576Q478 576 444 580T360 589L164 610L224 646L185 376L151 392Q191 418 239 429T330 440Q384 440 427 421T497 361T523 257Q523 183 486 121T382 21T222
-16Q149 -16 106 -1T43 38T24 91Z" />
<glyph unicode="6" horiz-adv-x="580" d="M288 -16Q240 -16 198 -2T122 43T70 123T51 245Q51 343 75 425T144 568T254 662T398 696Q455 696 484 688T522 664T532 629Q532 601 524 587T507 572Q499 572 489 577T461 590Q447 597 418 606T353 616Q295 616 257 572T200
449T181 263Q181 163 212 114T297 64Q353 64 386 110T419 235Q419 271 407 299T371 344T307 360Q290 360 251 352T173 317L176 389Q211 412 255 426T352 440Q411 440 456 420T526 357T552 247Q552 191 531 143T473 60T389 4T288 -16Z" />
<glyph unicode="7" horiz-adv-x="580" d="M57 586Q58 611 64 632T81 666T103 680H590Q597 680 601 675T605 663Q603 636 595 619T573 587T540 554Q457 471 410 398T344 258T325 129Q325 98 334 74T343 37Q343 24 327 15T289 -2T247 -12T219 -16Q204 -16 196 3T188
81Q188 151 211 223T276 366T378 501T509 621L557 602L152 568Q122 566 109 564T77 562Q66 562 61 569T57 586Z" />
<glyph unicode="8" horiz-adv-x="580" d="M37 150Q37 186 53 220T99 283T168 331T254 355L281 317Q250 305 222 285T175 238T157 175Q157 118 192 91T281 64Q335 64 369 92T403 169Q403 200 388 219T347 255T288 293L244 322Q220 338 194 354T146 390T109 436T94
500Q93 560 124 604T210 672T333 696Q429 696 486 660T543 549Q543 516 527 486T482 433T420 394T348 372L311 409Q336 420 362 439T405 482T423 532Q423 571 401 593T331 615Q281 615 250 591T219 527Q219 498 233 479T267 448T304 425L410 364Q430 353 451 339T492
305T524 259T536 197Q536 137 499 89T401 13T266 -15Q161 -15 99 25T37 150Z" />
<glyph unicode="9" horiz-adv-x="580" d="M202 -16Q145 -16 115 -8T72 16T60 51Q60 80 68 94T85 108Q93 108 103 103T131 90Q145 83 174 74T239 64Q302 64 342 108T402 231T421 417Q421 517 390 566T305 616Q254 616 219 570T183 445Q183 391 210 356T295 320Q312
320 351 328T429 363L426 291Q392 269 349 255T262 240Q202 240 154 260T78 323T50 433Q50 489 71 537T129 620T213 676T314 696Q368 696 411 680T486 629T533 542T549 415Q549 325 527 247T460 109T351 17T202 -16Z" />
<glyph unicode=":" horiz-adv-x="207" d="M109 261Q81 261 61 280T40 330Q40 367 64 387T119 408Q148 408 167 391T187 340Q187 306 164 284T109 261ZM80 -16Q52 -16 32 3T11 53Q11 90 35 110T90 131Q119 131 138 114T158 63Q158 29 135 7T80 -16Z" />
<glyph unicode=";" horiz-adv-x="220" d="M109 261Q81 261 61 280T40 330Q40 367 64 387T119 408Q148 408 167 391T187 340Q187 306 164 284T109 261ZM-20 -145Q-20 -139 -17 -136T-8 -130Q36 -113 57 -85T78 -22Q78 -11 75 -2T54 35L110 -10Q95 -16 79 -16Q51
-16 31 3T11 53Q11 90 35 110T90 131Q126 131 144 105T163 40Q163 -12 147 -51T106 -117T53 -156T2 -170Q-7 -170 -13 -162T-20 -145Z" />
<glyph unicode="&lt;" horiz-adv-x="649" d="M557 481Q557 471 549 451T505 414L211 268V299L533 133Q544 128 547 125T551 111Q551 100 536 87T497 74Q479 74 463 82L164 233Q140 246 140 270Q140 288 157 309T231 358L505 496Q531 510 544 503T557 481Z" />
<glyph unicode="=" horiz-adv-x="550" d="M488 240Q500 240 503 236T506 223Q506 210 500 197T478 176T434 167L70 161Q58 161 55 167T52 183Q52 193 59 204T81 223T120 232L488 240ZM488 396Q500 396 503 392T506 379Q506 366 500 353T478 332T434 323L70 317Q58
317 55 323T52 339Q52 349 59 360T81 379T120 388L488 396Z" />
<glyph unicode="&gt;" horiz-adv-x="550" d="M91 76Q91 87 100 106T143 143L437 289V258L115 424Q105 429 101 432T97 446Q97 457 113 470T151 483Q169 483 185 475L484 324Q508 311 508 287Q508 269 491 249T417 199L143 61Q117 48 104 54T91 76Z" />
<glyph unicode="?" horiz-adv-x="393" d="M408 556Q408 508 384 471T323 405T243 356T165 322L249 385Q223 308 207 267T176 210T138 194Q126 194 120 200T115 220L121 330Q123 353 131 363T165 390Q221 427 249 460T278 540Q278 578 262 600T204 622Q167 622
142 609T100 583T73 570Q62 570 56 588T49 624Q49 650 89 673T212 696Q305 696 356 656T408 556ZM150 -16Q122 -16 102 3T81 53Q81 90 105 110T160 131Q189 131 208 114T228 63Q228 29 205 7T150 -16Z" />
<glyph unicode="@" horiz-adv-x="806" d="M306 133Q256 133 233 167T210 275Q210 353 240 414T323 512T441 548Q482 548 514 537T565 518L538 425Q515 443 486 457T431 479T396 487Q377 487 360 463T331 399T320 310Q320 268 324 241T342 214Q352 214 376 236T434
314T504 473H526L525 399Q479 261 424 197T306 133ZM40 263Q40 350 66 419T136 541T237 627T353 679T471 696Q567 696 638 664T749 572T789 425Q789 362 769 309T713 216T634 155T543 133Q508 133 492 151T476 191Q476 211 481 239T492 314L500 376L488 398L508
520Q518 521 535 523T569 527T600 530T618 532Q630 532 630 522Q630 518 629 514T625 499Q616 471 603 428T583 321L578 271Q574 236 579 225T600 214Q617 214 643 237T689 304T709 414Q709 485 678 533T591 606T462 631Q393 631 332 606T223 534T148 421T120 274Q120
163 186 107T367 50Q446 50 490 61T554 77Q559 78 563 78T569 79Q580 79 588 76T596 68Q596 56 573 42T512 15T434 -6T356 -15Q261 -15 190 17T79 112T40 263Z" />
<glyph unicode="A" horiz-adv-x="650" d="M12 -14Q-15 -14 -15 3Q-15 11 -7 29L290 628Q297 643 319 658T372 683T436 694Q444 694 451 689T462 665Q479 550 503 434T558 207Q572 160 582 131T602 87Q613 72 621 63T630 44Q630 34 619 24T590 6T555 -7T524 -12Q502
-12 479 27T434 170L347 587L366 599L171 189Q158 161 153 142T146 108T142 72Q140 53 123 38T84 11T41 -7T12 -14ZM138 190V265H510V190H138Z" />
<glyph unicode="B" horiz-adv-x="577" d="M80 -8Q62 -8 55 8T48 51Q48 71 51 96L115 680Q153 684 195 687T287 690Q378 690 433 674T513 623T538 538Q538 479 504 436T413 365L380 348Q353 335 332 327T293 318Q274 318 254 330T234 354Q234 363 238 366T251 372Q287
381 324 399T387 448T413 523Q413 573 369 594T226 615L179 159Q178 149 178 140T177 120Q177 109 178 98T180 75Q299 75 360 111T421 222Q421 268 397 302T331 349L400 385Q449 373 483 349T536 291T554 217Q554 154 523 105T428 28T272 0Q252 0 223 -1T165 -4T112
-7T80 -8Z" />
<glyph unicode="C" horiz-adv-x="597" d="M322 -16Q238 -16 176 17T78 118T43 283Q43 373 71 448T152 579T276 665T436 696Q518 696 559 679T600 616Q600 592 592 575T573 558Q564 558 553 564T527 577Q503 589 475 602T399 616Q338 616 288 576T207 466T176 301Q176
222 199 169T262 90T347 64Q385 64 415 78T467 112T508 145T540 160Q551 160 558 155T566 134Q566 95 533 61T445 6T322 -16Z" />
<glyph unicode="D" horiz-adv-x="671" d="M93 -8Q75 -8 66 12T56 59Q56 98 65 186L115 680Q169 685 222 687T322 690Q479 690 564 614T650 400Q650 284 601 194T460 52T234 0Q194 0 160 -4T93 -8ZM183 75Q291 75 365 114T478 224T517 388Q517 498 456 556T254
615H229L184 159Q183 142 183 120T183 75Z" />
<glyph unicode="E" horiz-adv-x="492" d="M93 -12Q75 -12 66 10T56 59Q56 98 65 186L115 680H269Q340 680 381 682T444 687T476 690Q487 690 491 687T496 668Q496 650 489 629T471 593T444 578Q434 578 411 581T359 588L229 605L184 159Q182 138 182 117T185 75L399
117Q417 121 429 123T446 126Q458 126 458 112Q458 87 450 61T426 18T389 0H359Q247 0 183 -6T93 -12ZM144 315L157 392H205Q248 392 286 395T350 401T383 404Q391 404 395 400T399 387Q399 372 379 356T330 329T272 317L144 315Z" />
<glyph unicode="F" horiz-adv-x="456" d="M85 -12Q72 -12 65 -2T55 25T52 59Q52 79 55 110T62 186L115 680H264Q335 680 374 682T432 687T461 690Q472 690 476 687T481 668Q481 650 474 629T456 593T429 578Q423 578 414 578T392 580T365 584L224 605L165 -12H85ZM139
295L152 372H200Q243 372 283 375T352 381T388 384Q396 384 400 380T404 367Q404 352 384 336T332 309T267 297L139 295Z" />
<glyph unicode="G" horiz-adv-x="665" d="M362 -16Q262 -16 191 17T81 118T43 283Q43 373 71 448T151 579T276 665T441 696Q514 696 553 679T593 616Q593 592 587 575T566 558Q556 558 545 564T520 577Q496 589 468 602T399 616Q335 616 285 577T205 468T176 301Q176
212 209 161T311 89T481 68L518 404H598Q618 404 624 395T631 358Q631 352 631 346T630 334L599 76Q595 47 588 25T560 0Q506 -8 457 -12T362 -16Z" />
<glyph unicode="H" horiz-adv-x="660" d="M153 315V390H524V315H153ZM94 -8Q80 -8 72 4T59 35T55 73Q55 114 60 152T69 234L117 695H187Q213 695 221 676T230 629Q230 605 228 586T223 540T214 466L164 -8H94ZM496 -8Q482 -8 474 4T461 35T457 73Q457 114 462
152T471 234L519 695H589Q615 695 623 676T632 629Q632 605 630 586T625 540T616 466L566 -8H496Z" />
<glyph unicode="I" horiz-adv-x="258" d="M94 -8Q80 -8 72 4T59 35T55 73Q55 114 60 152T69 234L117 695H187Q213 695 221 676T230 629Q230 605 228 586T223 540T214 466L164 -8H94Z" />
<glyph unicode="J" horiz-adv-x="264" d="M-29 -170Q-81 -170 -106 -145T-132 -72Q-132 -62 -128 -58T-119 -53Q-114 -53 -109 -55T-90 -63Q-66 -73 -44 -80T-4 -88Q11 -88 21 -73T39 -22T54 78L122 695H192Q220 695 228 676T236 629Q236 611 231 574T218 466L182
134Q173 49 153 -9T104 -103T42 -154T-29 -170Z" />
<glyph unicode="K" horiz-adv-x="617" d="M472 -7Q452 -7 426 18T370 87T310 183T250 291Q245 302 240 314T234 340Q234 357 242 381T277 442T357 535L424 604Q466 648 501 671T572 694Q603 694 614 680T626 640Q626 616 620 597T605 566T586 555Q576 555 563
558T532 562Q520 562 505 556T469 531T416 476L307 351L325 418Q356 334 397 267T476 156T530 97Q553 78 566 71T586 60T592 49Q592 40 580 30T548 12T509 -2T472 -7ZM94 -8Q80 -8 72 4T59 35T55 73Q55 114 60 152T69 234L117 695H187Q213 695 221 676T230 629Q230
605 228 586T223 540T214 466L164 -8H94Z" />
<glyph unicode="L" horiz-adv-x="450" d="M93 -12Q75 -12 66 10T56 59Q56 98 65 186L117 695H197Q229 695 232 670T228 583L182 159Q180 138 180 117T183 75L398 125Q409 127 415 128T424 130Q436 130 436 116Q436 91 428 64T404 19T367 0H337Q262 0 215 -3T139
-9T93 -12Z" />
<glyph unicode="M" horiz-adv-x="801" d="M76 -12Q60 -12 55 3T50 39Q50 74 54 113T62 191L117 695L200 696Q241 697 256 691T277 664L425 123L373 125L604 628Q617 656 652 675T737 695Q757 695 767 686T775 649L707 -8H627Q614 -8 607 8T600 53Q600 94 602 142T610
234L647 550L653 546L522 264Q482 178 457 128T417 52T390 20T367 12Q354 12 346 17T332 41L183 551L192 552L164 293Q155 214 156 167T162 95T173 55T178 29Q178 18 166 11T136 -2T102 -9T76 -12Z" />
<glyph unicode="N" horiz-adv-x="660" d="M76 -12Q60 -12 55 3T50 39Q50 74 54 113T62 191L117 695L190 696Q208 696 218 692T242 664Q290 580 346 498T453 340T537 203L511 172L533 387Q541 464 541 511T536 584T527 626T522 654Q522 664 532 671T557 684T586
691T611 694Q630 694 640 674T650 634Q650 617 647 595T638 524L624 392Q614 298 611 239T607 144T608 87T610 46Q610 35 599 25T571 6T538 -6T511 -11Q502 -11 495 -2T489 23Q490 36 482 56T462 99T441 137Q409 195 362 262T264 402T174 550L188 552L161 293Q154
224 153 180T155 109T162 69T169 47T173 28Q173 17 162 10T134 -3T101 -10T76 -12Z" />
<glyph unicode="O" horiz-adv-x="720" d="M329 -16Q243 -16 179 17T79 118T43 283Q43 373 71 448T149 579T267 665T413 696Q548 696 623 621T699 398Q699 308 671 233T593 101T475 15T329 -16ZM342 64Q384 64 424 86T496 151T547 250T566 378Q566 460 544 512T484
590T400 616Q339 616 288 577T207 466T176 302Q176 221 198 168T259 90T342 64Z" />
<glyph unicode="P" horiz-adv-x="554" d="M80 -8Q63 -8 56 8T49 51Q49 71 52 96L115 680H301Q424 680 485 639T546 503Q546 445 520 397T452 314T363 260T275 241Q264 241 251 248T228 266T218 288Q218 299 225 303T240 309Q285 318 324 340T388 400T413 490Q413
535 392 560T329 595T227 605L161 -8H80Z" />
<glyph unicode="Q" horiz-adv-x="710" d="M601 -170Q567 -170 529 -151T452 -95T379 -9L468 31Q497 5 520 -13T569 -43T629 -59T715 -64Q723 -64 726 -68T730 -80Q730 -92 718 -107T685 -137T643 -161T601 -170ZM329 -16Q243 -16 179 17T79 118T43 283Q43 373
71 448T149 579T267 665T413 696Q548 696 623 621T699 398Q699 308 671 233T593 101T475 15T329 -16ZM342 64Q384 64 424 86T496 151T547 250T566 378Q566 460 544 512T484 590T400 616Q339 616 288 577T207 466T176 302Q176 221 198 168T259 90T342 64Z" />
<glyph unicode="R" horiz-adv-x="567" d="M432 -9Q406 -9 373 30T305 133T240 270Q236 279 232 288T227 308Q227 319 234 323T249 329Q317 342 362 383T408 488Q408 524 393 552T338 598T230 615H226L160 -8H79Q62 -8 55 8T48 51Q48 71 51 96L115 680Q159 685
202 687T289 690Q362 690 419 670T508 608T541 499Q541 452 523 415T473 352T403 308T326 283L334 333Q368 262 400 212T459 133T499 91Q524 72 535 65T547 48Q547 39 535 30T503 11T465 -3T432 -9Z" />
<glyph unicode="S" horiz-adv-x="506" d="M207 -13Q122 -13 69 14T16 84Q16 117 21 131T38 145Q46 145 63 133T104 106T159 79T226 67Q278 67 310 89T343 159Q343 204 322 227T259 277L196 317Q162 339 134 362T89 417T72 500Q72 562 104 606T192 673T320 696Q387
696 420 688T463 664T474 629Q474 601 466 587T449 572Q441 572 431 577T403 590Q389 597 359 606T295 616Q252 616 223 594T193 528Q193 487 215 464T274 422L329 396Q368 378 401 356T455 300T476 208Q476 102 403 45T207 -13Z" />
<glyph unicode="T" horiz-adv-x="511" d="M207 -8Q191 -8 184 14T177 64Q177 91 180 124T191 216L234 596L100 567Q88 565 80 564T67 562Q56 562 51 569T47 586Q48 611 54 632T71 666T93 680H308Q385 680 428 683T493 688T526 691Q536 691 540 687T545 671Q546
651 540 629T523 592T501 576Q494 576 480 578T448 583L353 596L287 -8H207Z" />
<glyph unicode="U" horiz-adv-x="658" d="M317 -16Q220 -16 162 6T81 82T68 226L117 695H197Q217 695 224 686T232 649Q232 625 230 601T223 545T214 466L192 262Q181 160 214 112T341 64Q384 64 419 81T478 134T508 230L529 424Q535 480 534 517T528 578T519
619T515 649Q515 661 530 671T567 688T604 694Q619 694 627 685T639 661T643 634Q643 617 640 587T633 524L602 238Q591 135 557 80T463 5T317 -16Z" />
<glyph unicode="V" horiz-adv-x="657" d="M258 -14Q250 -14 243 -9T232 15Q221 92 203 174T163 337T120 493Q107 540 97 561T76 597Q65 612 54 622T42 641Q42 651 56 660T91 676T132 688T165 692Q182 692 195 675T222 619T251 510L342 93L301 81L500 491Q514 520
521 539T531 574T537 611Q539 630 556 645T595 671T637 688T666 694Q693 694 693 677Q693 666 685 651L381 52Q374 38 358 23T317 -3T258 -14Z" />
<glyph unicode="W" horiz-adv-x="840" d="M498 -14Q490 -14 483 -9T472 15L424 418L411 491Q403 540 396 564T381 603Q373 618 369 627T364 646Q364 656 374 664T400 679T432 688T461 692Q487 692 504 650T532 510L580 93L546 81L703 491Q715 521 718 540T721
575T723 611Q725 630 741 645T779 671T820 688T849 694Q876 694 876 677Q876 672 874 666T868 651L616 52Q610 38 595 23T556 -3T498 -14ZM174 -14Q166 -14 159 -9T148 15L98 444Q92 498 87 526T75 569T63 595Q55 611 49 620T42 639Q42 649 53 658T81 675T116 687T147
692Q162 692 175 676T200 620T217 510L257 93L218 81L433 558L444 403L294 47Q285 25 255 6T174 -14Z" />
<glyph unicode="X" horiz-adv-x="632" d="M60 -13Q24 -13 7 14T-11 83Q-11 100 -5 112T16 124Q31 124 47 119T85 114Q95 114 113 126T158 168T216 244T288 360L305 375Q351 459 389 519T463 618T533 675T608 694Q632 694 643 681T655 646Q655 620 647 598T626
563T602 549Q592 549 582 553T554 557Q533 557 479 500T360 321L340 306Q312 248 282 191T218 88T146 15T60 -13ZM500 -8Q468 -8 442 18T386 106T308 272L292 306Q222 451 174 525T81 613Q66 618 60 622T53 636Q53 653 73 666T120 688T164 696Q186 696 206 685T249
643T298 559T359 419L371 395Q406 324 434 273T487 186T530 129T563 95Q573 87 583 79T600 64T607 49Q607 40 596 31T567 12T531 -2T500 -8Z" />
<glyph unicode="Y" horiz-adv-x="578" d="M247 261L157 475Q137 523 121 553T84 600Q59 620 51 629T43 648Q43 657 60 667T99 686T136 694Q177 694 204 661T252 570L326 362L296 340L396 494Q424 536 430 567T439 619Q441 637 461 650T508 674T559 689T596 694Q614
694 614 678Q614 668 606 653T584 619L332 261H247ZM242 -8Q224 -8 217 8T210 51Q210 71 213 96L240 339L359 321L323 -8H242Z" />
<glyph unicode="Z" horiz-adv-x="523" d="M38 -6Q24 -6 16 16T8 58Q9 75 13 82T29 106Q109 224 180 316T311 487T419 643L424 608L149 572Q125 569 109 568T87 566Q74 566 69 572T64 597Q64 609 69 631T86 672T112 691Q134 691 185 686T322 680H500Q518 680 521
660T518 616T502 575Q446 486 381 397T251 218T130 40L74 63L427 126Q456 131 468 133T486 136Q498 136 498 122Q498 103 494 82T480 43T458 12T429 0H342Q257 0 202 -1T109 -4T38 -6Z" />
<glyph unicode="[" horiz-adv-x="338" d="M12 -170L102 680H193L103 -170H12ZM82 -170L83 -110H174Q209 -110 231 -119T246 -162Q243 -170 234 -170H82ZM146 620L159 680H311Q321 680 321 672Q320 639 296 630T237 620H146Z" />
<glyph unicode="\" horiz-adv-x="293" d="M135 630L249 -126Q252 -141 252 -148Q252 -158 246 -163T232 -169Q211 -169 196 -150T175 -93L47 673Q45 685 54 690T71 696Q91 695 111 675T135 630Z" />
<glyph unicode="]" horiz-adv-x="338" d="M330 680L240 -170H149L239 680H330ZM260 680L259 620H168Q133 620 111 629T96 672Q99 680 108 680H260ZM196 -110L183 -170H31Q21 -170 21 -162Q22 -129 46 -120T105 -110H196Z" />
<glyph unicode="^" horiz-adv-x="550" d="M136 196Q121 196 116 208T121 248L245 553Q265 601 286 622T333 644Q344 644 359 637T378 611L463 288Q465 279 465 271T465 254Q465 232 446 218T416 204Q406 204 403 208T397 222L313 573H326L196 243Q186 218 169
207T136 196Z" />
<glyph unicode="_" horiz-adv-x="593" d="M17 -79Q17 -68 24 -58T43 -42T72 -35H500Q512 -35 512 -51Q512 -72 497 -83T462 -95H28Q21 -95 19 -91T17 -79Z" />
<glyph unicode="`" horiz-adv-x="200" d="M-48 551L-178 687Q-182 692 -189 694T-204 696Q-216 696 -228 688T-249 666T-258 635Q-258 627 -255 623T-241 613L-88 526Q-82 523 -76 523T-66 522Q-57 522 -49 526T-40 538Q-40 541 -42 544T-48 551Z" />
<glyph unicode="a" horiz-adv-x="534" d="M128 -16Q72 -16 48 29T24 157Q24 230 45 291T104 396T190 465T294 490Q337 490 372 479T433 455L404 350Q377 368 344 383T282 406T239 415Q211 415 188 388T151 312T137 200Q137 142 145 112T173 82Q186 82 217 111T292
210T385 397L413 308Q359 188 310 117T216 15T128 -16ZM367 -10Q347 -10 343 9T339 51Q339 68 343 93T355 147T370 204L392 279L363 305L387 456Q419 461 443 469T484 483T508 489Q519 489 519 477Q519 472 507 435T480 339T458 213L437 -10H367Z" />
<glyph unicode="b" horiz-adv-x="527" d="M219 -16Q211 -16 187 -11T132 4T75 24L136 105Q163 87 188 77T234 63T274 59Q308 59 334 86T375 163T390 274Q390 332 382 362T354 392Q345 392 324 378T274 328T211 231T139 77L109 166Q165 293 216 363T314 461T399
490Q455 490 479 443T503 317Q503 220 469 145T371 27T219 -16ZM219 -16Q158 -16 117 -5T56 25T38 68L108 696H178Q193 696 205 674T217 624Q217 590 213 562T198 490L128 189L148 34L219 -16Z" />
<glyph unicode="c" horiz-adv-x="410" d="M184 -16Q105 -16 63 33T21 174Q21 264 56 336T153 449T294 491Q336 491 368 480T400 434Q400 419 395 404T382 379T366 369Q362 369 355 371T343 377Q332 384 317 393T283 409T244 416Q213 416 189 387T150 310T136 206Q136
132 158 108T224 83Q260 83 285 95T333 124Q342 130 347 131T356 133Q361 133 364 129T367 120Q367 102 352 79T311 34T253 -2T184 -16Z" />
<glyph unicode="d" horiz-adv-x="551" d="M125 -16Q71 -16 48 28T24 157Q24 230 44 291T102 396T188 465T294 490Q329 490 363 479T423 455L391 357Q364 375 335 388T281 408T243 415Q214 415 190 388T152 312T137 200Q137 142 145 112T173 82Q189 82 222 111T300
210T394 397L423 308Q370 188 318 117T218 15T125 -16ZM389 -10Q378 -10 370 2T358 33T354 66Q354 91 362 123T384 204L404 279L375 311L386 416L400 433L408 696H486Q501 696 510 683T524 653T529 619Q529 609 528 597T524 563T515 503L482 273Q475 225 470 175T463
78T459 -10H389Z" />
<glyph unicode="e" horiz-adv-x="442" d="M181 -16Q104 -16 62 32T20 166Q20 237 40 296T96 399T180 467T286 491Q354 491 390 462T426 379Q426 324 390 283T285 213T121 164L108 224Q163 231 209 248T283 293T311 361Q311 388 301 402T263 416Q222 416 194 386T151
308T136 206Q136 133 158 109T225 84Q271 84 305 98T365 129Q373 134 379 137T389 140Q394 140 397 136T400 127Q400 109 384 85T339 38T269 0T181 -16Z" />
<glyph unicode="f" horiz-adv-x="323" d="M46 -219Q33 -219 27 -211T21 -188Q21 -167 24 -142L98 471Q112 587 170 641T329 696Q375 696 394 682T414 638Q414 621 410 606T399 582T382 572Q374 572 358 584T321 609T275 621Q242 621 230 588T211 499L178 208Q171
149 166 89T156 -24Q153 -49 141 -82T110 -146T75 -198T46 -219ZM41 405Q34 405 31 410T30 422L37 441Q44 461 52 468T91 475H331Q344 475 339 459Q329 431 318 418T277 405H41Z" />
<glyph unicode="g" horiz-adv-x="526" d="M192 -221Q144 -221 105 -207T42 -161T18 -80Q18 -63 29 -63Q34 -63 42 -67T63 -78Q81 -88 111 -103T175 -131T233 -143Q249 -143 263 -136T291 -110T317 -54T340 42L390 313L372 337L373 465Q437 473 466 481T506 489Q516
489 516 477Q516 472 504 435T477 340T460 210L453 30Q450 -40 426 -88T362 -165T279 -208T192 -221ZM129 -9Q73 -9 49 36T25 164Q25 233 46 292T103 396T188 465T292 490Q335 490 370 479T431 455L402 350Q375 368 342 383T280 406T237 415Q209 415 187 387T151
312T138 207Q138 149 146 119T174 89Q187 89 217 117T291 212T383 397L411 308Q357 188 309 119T216 20T129 -9Z" />
<glyph unicode="h" horiz-adv-x="530" d="M357 -10Q349 -10 344 0T336 24T334 45Q334 59 336 81T341 127T347 170L364 274Q367 294 370 311T373 349Q373 364 367 372T351 380Q338 380 309 356T246 285T185 174T149 25L124 175Q165 291 216 360T317 459T405 490Q449
490 469 465T489 399Q489 377 486 353T478 303L430 -10H357ZM60 -14Q47 -14 41 -9T34 16T38 75L81 469Q87 526 96 582T108 696H178Q198 696 207 669T217 614Q217 592 215 575T209 538T198 490L134 197L167 238Q160 174 156 117T149 25Q149 15 132 6T93 -8T60 -14Z"
/>
<glyph unicode="i" horiz-adv-x="232" d="M68 -16Q51 -16 46 3T41 44Q41 80 44 108T52 170L88 491H158Q178 491 184 469T190 419Q190 405 188 390T182 342L163 179Q157 127 152 92T144 32T138 -16H68ZM156 548Q128 548 108 567T87 617Q87 654 111 674T166 695Q195
695 214 678T234 627Q234 593 211 571T156 548Z" />
<glyph unicode="j" horiz-adv-x="234" d="M-46 -221Q-71 -221 -90 -208T-121 -171T-132 -115Q-132 -105 -128 -101T-119 -96Q-114 -96 -108 -100T-89 -113Q-69 -125 -45 -135T-3 -146Q8 -146 17 -136T33 -99T48 -27T62 92L101 491H173Q185 491 194 478T207 449T212
419Q212 396 205 355T189 255T173 122L162 -1Q155 -78 126 -127T53 -198T-46 -221ZM167 548Q139 548 119 567T98 617Q98 654 122 674T177 695Q206 695 225 678T245 627Q245 593 222 571T167 548Z" />
<glyph unicode="k" horiz-adv-x="504" d="M384 -11Q362 -11 339 10T294 65T253 142T219 227Q215 239 210 256T205 289Q205 300 208 309T219 330Q239 362 267 391T330 442T400 477T470 490Q497 490 505 477T514 441Q514 419 509 403T495 377T480 368Q467 368 450
376T409 384Q368 384 334 358T280 299L290 342Q333 227 369 169T431 84Q448 67 461 61T474 44Q474 31 458 19T420 -2T384 -11ZM81 -14Q63 -14 53 8T44 59Q45 93 50 140T60 233L88 469Q94 514 91 549T83 611T78 657Q78 668 95 676T136 690T175 696Q192 696 205 672T218
615Q218 608 216 576T208 503L176 273Q166 201 162 130T151 -14H81Z" />
<glyph unicode="l" horiz-adv-x="245" d="M81 -14Q63 -14 53 8T44 59Q45 93 50 140T60 233L88 469Q94 514 91 549T83 611T78 657Q78 668 95 676T136 690T175 696Q192 696 205 672T218 615Q218 608 216 576T208 503L176 273Q166 201 162 130T151 -14H81Z" />
<glyph unicode="m" horiz-adv-x="830" d="M657 -10Q646 -10 641 0T635 24T634 45Q634 59 636 81T641 127T647 170L664 274Q667 294 670 311T673 349Q673 364 667 372T651 380Q638 380 608 355T544 284T482 173T446 28L424 175Q465 291 515 360T616 459T703 490Q734
490 752 479T780 447T789 397Q789 376 786 353T778 303L730 -10H657ZM63 -14Q50 -14 44 -10T37 14T41 75L88 491H158Q178 491 187 469T197 419Q197 406 190 379T172 321T154 267L128 185L165 191L148 28Q147 18 137 10T112 -3T85 -11T63 -14ZM358 -14Q340 -14 336
-7T332 17Q332 32 335 66T351 170L369 273Q373 293 375 312T378 352Q378 366 373 373T357 380Q343 380 312 355T247 284T184 173T148 28L124 175Q154 262 192 322T269 419T343 473T405 490Q438 490 456 478T482 447T490 406Q490 381 482 354T461 289T431 190L464
202L446 28Q445 18 435 10T411 -3T382 -11T358 -14Z" />
<glyph unicode="n" horiz-adv-x="533" d="M362 -10Q351 -10 346 0T339 24T337 45Q337 59 339 81T344 127T350 170L367 274Q370 294 373 311T376 349Q376 364 370 372T354 380Q341 380 311 355T247 284T186 172T150 27L124 175Q154 262 191 322T268 419T343 473T408
490Q438 490 456 479T483 449T492 403Q492 378 489 354T481 303L433 -10H362ZM63 -14Q50 -14 44 -10T37 14T41 75L88 491H158Q173 491 185 469T197 419Q197 406 190 379T172 321T154 267L128 185L165 191L149 27Q148 17 137 9T111 -4T83 -11T63 -14Z" />
<glyph unicode="o" horiz-adv-x="488" d="M202 -15Q116 -15 69 35T21 184Q21 249 42 304T101 402T186 467T289 491Q375 491 420 440T466 286Q466 224 446 170T389 74T305 9T202 -15ZM226 60Q264 60 291 88T333 165T348 275Q348 340 329 378T264 416Q227 416 199
388T155 312T139 201Q139 132 161 96T226 60Z" />
<glyph unicode="p" horiz-adv-x="539" d="M245 -16Q202 -16 167 -5T106 19L138 117Q165 99 194 86T250 66T292 59Q323 59 348 86T387 163T402 274Q402 332 393 362T366 392Q354 392 321 365T241 269T142 77L120 166Q177 292 227 362T323 461T411 490Q473 490 494
443T515 317Q515 220 479 145T382 27T245 -16ZM64 -219Q48 -219 39 -206T26 -174T22 -141Q22 -121 24 -92T30 -23L88 491H158Q172 491 180 479T193 451T197 419Q197 400 186 363T157 267L134 191H164L149 56L140 43L134 -219H64Z" />
<glyph unicode="q" horiz-adv-x="536" d="M128 -16Q72 -16 48 25T24 157Q24 230 44 291T102 396T188 465T294 490Q329 490 368 479T433 455L401 347Q374 370 345 385T290 407T243 415Q214 415 190 388T152 312T137 200Q137 142 145 112T173 82Q182 82 204 98T256
151T320 248T390 397L420 308Q368 188 317 117T219 15T128 -16ZM378 -219Q366 -219 356 -207T339 -173T332 -127Q332 -95 335 -68T343 -11L400 313L375 337L381 463Q445 471 474 480T515 489Q525 489 525 477Q525 472 514 435T490 340T471 210L459 56Q454 -8 453
-77T448 -219H378Z" />
<glyph unicode="r" horiz-adv-x="386" d="M147 24L123 175Q160 271 198 341T277 451T358 490Q381 490 391 476T401 439Q401 419 397 401T384 370T363 358Q352 358 339 365T302 372Q287 372 264 341T217 259T173 146T147 24ZM63 -14Q50 -14 44 -10T37 14T41 75L88
491H158Q173 491 185 469T197 419Q197 406 190 379T172 321T154 267L128 185L165 191L147 24Q146 14 135 7T110 -5T82 -12T63 -14Z" />
<glyph unicode="s" horiz-adv-x="403" d="M166 -16Q90 -16 47 7T3 71Q3 89 8 104T25 120Q29 120 34 118T53 107Q73 94 97 83T147 66T195 59Q227 59 241 74T256 116Q256 135 245 147T208 176L146 216Q107 241 81 269T54 344Q54 409 104 449T245 490Q309 490 339
477T369 432Q369 407 362 390T341 373Q337 373 331 375T319 380Q311 385 294 394T256 410T212 418Q189 418 175 405T160 368Q160 349 172 336T212 309L277 279Q318 260 343 235T369 159Q369 100 341 61T266 3T166 -16Z" />
<glyph unicode="t" horiz-adv-x="336" d="M132 -16Q84 -16 65 12T52 100L91 405H59Q44 405 44 421Q44 431 57 450T92 492T135 536T177 570T206 584Q217 584 221 576T223 554L214 475H326Q341 475 343 470T342 454Q330 420 320 413T281 405H201L176 191Q174 172
173 155T171 124Q171 101 182 92T218 82Q242 82 259 92T284 102Q292 102 292 92Q292 82 282 64T251 28T200 -3T132 -16Z" />
<glyph unicode="u" horiz-adv-x="526" d="M126 -13Q87 -13 66 8T44 73Q44 88 44 103T47 139T54 193L92 491H162Q179 491 184 472T190 424Q190 403 187 369T178 294L166 212Q162 184 161 162T159 126Q159 106 163 96T181 85Q196 85 219 107T267 165T315 242T351
323T365 390Q365 413 360 428T355 454Q355 463 366 470T394 481T426 488T451 491Q468 491 477 471T483 414L436 -10H366Q354 -10 347 2T338 31T335 55Q335 78 341 105T360 174T391 282V265Q352 163 305 102T212 14T126 -13Z" />
<glyph unicode="v" horiz-adv-x="488" d="M183 -16Q141 -16 116 15T84 107L62 331Q60 354 56 377T44 415Q37 429 32 434T27 448Q27 456 38 463T67 477T101 487T129 491Q147 491 158 472T175 397L201 143Q204 114 211 99T233 84Q244 84 263 98T303 145T338 233T352
370Q352 394 346 407T339 430Q339 439 350 450T377 470T410 485T437 491Q449 491 461 484T473 449Q473 401 459 340T420 216T358 101T278 16T183 -16Z" />
<glyph unicode="w" horiz-adv-x="721" d="M452 -16Q406 -16 381 17T356 105Q355 121 355 138T357 197L333 198L329 312Q328 328 325 348T316 387T306 416Q299 431 294 436T289 450Q289 458 300 465T328 478T363 487T395 491Q410 491 422 474T439 397L464 133Q466
111 473 98T491 84Q521 84 542 120T575 213T586 334Q586 375 576 395T565 428Q565 437 577 448T606 469T640 485T668 491Q682 491 693 483T704 445Q704 343 681 259T619 113T537 18T452 -16ZM186 -16Q134 -16 112 23T81 138L63 331Q61 354 56 377T44 415Q37 429
32 434T27 448Q27 456 38 463T66 477T101 487T133 491Q146 491 157 472T173 397L195 171Q199 131 207 108T233 84Q248 84 270 105T311 177T329 312L371 231Q361 136 331 82T262 6T186 -16Z" />
<glyph unicode="x" horiz-adv-x="475" d="M52 -15Q31 -15 18 -6T0 21T-6 58Q-6 76 1 82T16 88Q46 88 74 103T129 151T183 237L237 309Q277 384 312 423T377 476T431 490Q450 490 461 478T472 443Q472 426 469 410T458 384T442 374Q432 374 421 378T395 382Q373
382 343 347T282 254L218 172Q193 112 165 70T109 7T52 -15ZM346 -12Q326 -12 301 19T237 126L198 205L191 212L155 275Q133 315 115 341T82 384T57 412Q47 423 40 430T32 448Q32 457 49 467T90 484T130 491Q144 491 154 483T178 451T217 381L255 311L270 286L303
226Q330 177 350 147T386 99T411 70Q424 56 434 49T444 34Q444 25 434 17T407 2T375 -8T346 -12Z" />
<glyph unicode="y" horiz-adv-x="525" d="M169 -221Q126 -221 93 -208T41 -164T22 -84Q22 -74 25 -71T33 -67Q38 -67 45 -71T65 -83Q83 -95 106 -108T157 -132T210 -142Q236 -142 258 -126T299 -68T337 45L393 273L399 274Q362 176 314 113T216 19T126 -12Q84
-12 64 11T44 75Q44 95 46 119T55 194L92 491H162Q179 491 188 472T197 424Q197 404 195 389T190 354T180 298L166 212Q162 184 160 163T157 127Q157 106 161 96T182 85Q199 85 221 107T268 164T312 239T346 316T359 379Q359 396 356 415T353 450Q353 462 372 471T416
486T455 491Q469 491 477 478T486 429Q486 412 481 379T473 316L448 30Q442 -35 416 -82T349 -160T262 -206T169 -221Z" />
<glyph unicode="z" horiz-adv-x="436" d="M26 0Q20 0 16 7T11 30Q11 50 14 65T22 87Q54 137 93 184T167 271Q204 314 238 352T295 427L329 417L112 388Q94 386 79 386T58 386Q51 386 48 392T44 405Q44 419 50 439T67 475T93 491Q99 491 129 487T202 479T289 475H409Q417
475 423 471T429 459Q429 446 426 432T409 394Q385 354 353 316T282 235Q244 192 203 147T130 51L100 63L340 105Q360 109 372 110T389 112Q398 112 400 104T398 74Q391 27 380 14T357 0H26Z" />
<glyph unicode="{" horiz-adv-x="320" d="M9 253Q9 287 17 302T42 317Q55 317 73 312T115 296Q119 309 121 324T125 363T126 426V568Q126 613 150 641T214 683T306 696H339Q349 696 352 692T356 683Q356 673 347 662T321 648Q280 641 257 634T225 612T216 563L217
379Q217 336 201 310T157 270T96 252L125 290Q161 278 176 262T196 228T200 197Q200 179 197 165T192 143L157 -36Q156 -42 155 -48T153 -66Q153 -84 169 -97T225 -118Q244 -122 256 -130T269 -152Q269 -169 250 -169Q148 -169 104 -146T60 -71Q60 -63 61 -56T63
-41L100 154Q105 177 106 192T107 217Q107 223 107 228T106 237Q84 233 62 230T28 227Q16 227 13 234T9 253Z" />
<glyph unicode="|" horiz-adv-x="262" d="M196 582L137 -187Q136 -201 128 -211T107 -221Q94 -221 80 -206T66 -169L126 671Q127 686 134 691T151 696Q162 696 173 687T192 665T200 641Q200 622 199 608T196 582Z" />
<glyph unicode="}" horiz-adv-x="320" d="M317 274Q317 240 309 225T284 210Q271 210 253 215T211 231Q207 219 205 204T201 164T200 101V-41Q200 -86 176 -114T112 -155T20 -169H-13Q-23 -169 -26 -165T-30 -156Q-30 -146 -21 -135T5 -121Q47 -113 69 -107T101
-85T110 -36L109 148Q109 192 125 218T169 257T230 275L201 237Q165 250 150 266T130 299T126 330Q126 348 129 362T134 384L169 563Q171 569 172 575T173 593Q173 611 157 624T101 645Q82 649 70 657T57 679Q57 696 76 696Q178 696 222 673T266 598Q266 591 266
584T263 568L226 373Q222 350 221 335T219 310Q219 304 219 300T220 290Q242 295 265 297T298 300Q310 300 313 293T317 274Z" />
<glyph unicode="~" horiz-adv-x="550" d="M71 240Q71 284 86 316T127 366T184 384Q219 384 246 367T295 327T336 287T375 270Q396 270 409 290T431 356Q433 367 438 371T452 375Q463 375 476 369T490 341Q490 298 475 266T435 215T377 197Q342 197 315 214T267
254T226 294T186 311Q165 311 153 292T131 225Q129 214 124 210T110 206Q99 206 85 212T71 240Z" />
<glyph unicode="&#xa0;" horiz-adv-x="245" />
<glyph unicode="&#xa1;" horiz-adv-x="207" d="M107 -155Q106 -176 99 -191T79 -213T45 -221Q9 -221 -4 -208T-17 -171Q-17 -166 -17 -161T-15 -149L29 46Q46 120 54 166T70 237T88 271T118 281Q125 281 130 277T134 264L107 -155ZM127 491Q156 491 176 472T196
422Q196 385 173 365T117 344Q89 344 69 361T49 412Q49 446 72 468T127 491Z" />
<glyph unicode="&#xa2;" horiz-adv-x="580" d="M267 -16Q178 -16 134 32T89 156Q89 230 115 291T188 397T291 466T412 491Q440 491 464 487T503 470T518 434Q518 411 507 390T484 369Q473 369 461 377Q450 384 435 393T401 409T362 416Q311 416 276 387T222 310T204
206Q204 141 229 112T308 83Q355 83 390 95T451 121Q466 130 474 130Q479 130 482 126T485 117Q485 93 458 62T381 7T267 -16ZM257 -218Q243 -218 234 -205T224 -173Q224 -170 225 -165T227 -149L358 669Q360 684 368 688T385 692Q396 691 405 681T420 657T425
633Q424 614 421 600T416 574L290 -187Q288 -200 280 -209T257 -218Z" />
<glyph unicode="&#xa3;" horiz-adv-x="580" d="M50 27Q62 39 75 55T99 102T115 186L134 381Q146 497 185 566T280 665T401 696Q483 696 524 679T565 616Q565 592 557 575T538 558Q527 558 517 564T492 577Q476 585 454 594T407 609T361 616Q318 616 297 590T267
508T250 362L237 220Q232 163 222 127T194 70T147 33L152 59L516 115Q527 117 534 117T544 118Q549 118 552 113T556 100Q556 75 548 52T524 15T487 0Q367 0 282 -2T143 -6T67 -9Q49 -9 43 2T50 27ZM509 378Q521 378 524 374T527 361Q527 348 521 335T499 314T455
305L76 296Q64 296 61 302T58 318Q58 328 65 339T87 358T126 367L509 378Z" />
<glyph unicode="&#xa4;" horiz-adv-x="580" d="M293 160Q244 160 209 181T154 239T135 319Q135 371 158 414T223 484T321 510Q374 510 409 489T461 432T478 353Q478 300 455 256T390 186T293 160ZM84 112Q71 123 75 141T95 174L184 261L234 216L129 114Q119 104
107 103T84 112ZM506 99Q493 91 482 93T461 105L370 207L417 262L504 165Q518 149 519 129T506 99ZM299 227Q343 227 371 259T399 346Q399 390 378 417T312 445Q268 445 241 411T214 328Q214 283 235 255T299 227ZM194 413L105 510Q98 518 95 532T94 560T104 582Q111
587 121 590T142 581L245 464L194 413ZM429 406L385 457L506 574Q518 585 526 583T541 575Q549 568 549 554T546 525T534 504L429 406Z" />
<glyph unicode="&#xa5;" horiz-adv-x="580" d="M278 261L195 458Q175 505 152 533T110 574Q85 593 77 601T68 623Q68 632 80 644T110 667T146 686T178 694Q197 694 212 676T247 618T293 510L354 362L306 340L403 494Q429 536 442 567T458 619Q460 637 478 650T522
674T570 689T605 694Q623 694 623 678Q623 668 615 653T593 619L344 261H278ZM257 -8Q239 -8 232 8T225 51Q225 71 228 96L255 339L374 321L338 -8H257ZM87 150Q75 150 72 156T69 172Q69 182 76 193T98 212T137 221L514 230Q526 230 529 226T532 213Q532 193 517
176T460 157L87 150ZM107 267Q95 267 92 273T89 289Q89 299 96 310T118 329T157 338L534 347Q546 347 549 343T552 330Q552 310 537 293T480 274L107 267Z" />
<glyph unicode="&#xa6;" horiz-adv-x="262" d="M196 582L175 313Q174 299 166 289T145 279Q132 279 118 294T104 331L126 671Q127 686 134 691T151 696Q162 696 173 687T192 665T200 641Q200 622 199 608T196 582ZM158 82L137 -187Q136 -201 128 -211T107 -221Q94
-221 80 -206T66 -169L88 171Q89 186 96 191T113 196Q124 196 135 187T154 165T162 141Q162 122 161 108T158 82Z" />
<glyph unicode="&#xa7;" horiz-adv-x="456" d="M-2 -79Q-2 -58 4 -40T24 -22Q28 -22 34 -24T56 -38Q90 -60 125 -76T198 -93Q233 -93 254 -71T276 -17Q276 5 266 23T226 57L144 104Q96 132 71 164T45 254Q45 293 66 323T121 371T194 393L183 383Q134 412 109 443T84
533Q84 604 136 649T289 695Q363 695 398 681T433 638Q433 623 429 609T418 586T400 577Q395 577 388 579T375 585Q365 589 346 597T302 613T253 620Q222 620 205 603T187 554Q187 528 202 510T251 475L328 436Q377 411 406 379T436 294Q436 249 415 217T358 168T282
147L289 159Q339 135 368 103T397 15Q397 -45 365 -86T281 -148T173 -170Q121 -170 82 -159T20 -126T-2 -79ZM148 275Q148 242 168 225T237 186Q272 186 293 208T315 262Q315 290 301 307T256 341Q201 340 175 323T148 275Z" />
<glyph unicode="&#xa8;" horiz-adv-x="200" d="M119 559Q96 559 79 574T62 616Q62 646 82 663T128 681Q151 681 167 667T184 624Q184 596 165 578T119 559ZM-42 559Q-65 559 -82 574T-99 616Q-99 646 -79 663T-33 681Q-10 681 6 667T23 624Q23 596 4 578T-42 559Z" />
<glyph unicode="&#xa9;" horiz-adv-x="787" d="M366 -15Q269 -15 197 26T84 139T44 300Q44 380 73 451T155 578T281 664T441 696Q544 696 616 653T726 538T764 375Q764 293 735 222T654 98T528 15T366 -15ZM388 118Q335 118 294 139T229 202T205 306Q205 381 237
439T327 531T459 565Q511 565 536 552T562 502Q562 487 557 476T546 465Q540 465 533 469T516 477Q502 485 484 493T436 502Q377 502 341 455T304 317Q304 243 331 212T403 181Q427 181 446 190T479 211T504 233T524 242Q532 242 536 239T541 225Q541 201 520 176T465
135T388 118ZM374 50Q466 50 536 91T645 203T684 362Q684 437 656 498T572 595T433 631Q364 631 308 605T210 533T146 428T124 304Q124 231 154 174T240 83T374 50Z" />
<glyph unicode="&#xaa;" horiz-adv-x="472" d="M142 283Q97 283 72 318T46 420Q46 499 75 560T155 656T270 692Q305 692 337 683T389 664L366 579Q344 594 317 605T267 622T232 629Q209 629 191 608T161 544T150 435Q150 411 155 389T175 367Q189 367 215 389T275
467T350 617L373 545Q330 448 290 391T214 308T142 283ZM340 288Q324 288 316 303T308 337Q308 357 316 386T338 461L356 521L332 543L352 665Q390 671 420 681T460 691Q469 691 469 682Q469 678 459 648T436 570T419 468L402 288H340Z" />
<glyph unicode="&#xab;" horiz-adv-x="561" d="M317 428V428Q307 428 298 425T281 416L44 266Q34 259 30 253T25 240Q25 233 29 228T37 218L202 84Q219 70 230 64T252 58Q261 58 273 65T293 83T302 104Q302 110 300 115T291 125L143 242L211 286Q270 324 297 348T331
387T339 409Q339 419 333 423T317 428ZM527 428V428Q517 428 508 425T491 416L254 266Q244 259 240 253T235 240Q235 233 239 228T247 218L412 84Q429 70 440 64T462 58Q471 58 483 65T503 83T512 104Q512 110 510 115T501 125L353 242L421 286Q480 324 507 348T541
387T549 409Q549 419 543 423T527 428Z" />
<glyph unicode="&#xac;" horiz-adv-x="550" d="M420 96Q435 96 454 111T477 164L499 373Q500 381 497 385T481 390L113 380Q89 380 74 372T52 352T45 331Q45 321 48 315T63 309L418 317L404 163Q403 156 401 139T399 114Q399 102 404 99T420 96Z" />
<glyph unicode="&#xad;" horiz-adv-x="437" d="M249 285Q288 287 295 287T303 287Q315 287 318 283T321 270Q321 257 315 245T293 224T249 214L70 207Q69 207 69 207T67 207Q55 207 52 213T49 229Q49 244 64 261T117 279L249 285Z" />
<glyph unicode="&#xae;" horiz-adv-x="572" d="M280 188Q210 188 159 217T79 298T50 413Q50 470 70 521T129 611T219 673T333 696Q407 696 458 666T537 583T564 467Q564 389 528 326T429 225T280 188ZM287 244Q350 244 397 272T470 348T497 456Q497 507 478 548T421
615T327 640Q265 640 218 609T144 527T117 417Q117 368 137 329T196 267T287 244ZM198 328Q198 340 199 346L215 488Q217 502 217 513T215 529Q211 534 209 538T206 550Q206 557 230 570T289 583H308Q370 583 400 561T430 503Q430 471 402 447T326 417L329 438H348Q366
401 384 378T407 352Q418 345 424 343T431 335Q431 331 421 324T399 311T378 305Q358 305 339 330T294 408Q291 414 291 422T290 431Q290 436 293 439T304 444Q328 449 343 462T358 499Q358 523 344 535T287 548L271 394Q269 369 270 362T275 349Q280 342 280 338Q280
333 271 325T248 311T220 305Q207 305 203 310T198 328Z" />
<glyph unicode="&#xaf;" horiz-adv-x="200" d="M-277 621Q-275 636 -262 636H-15Q2 636 0 621L-4 591Q-6 576 -19 576H-266Q-283 576 -281 591L-277 621Z" />
<glyph unicode="&#xb0;" horiz-adv-x="421" d="M197 346Q148 346 113 367T58 425T39 505Q39 557 62 600T127 670T225 696Q278 696 313 675T365 618T382 539Q382 486 359 442T294 372T197 346ZM203 413Q247 413 275 445T303 532Q303 576 282 603T216 631Q172 631
145 597T118 514Q118 469 139 441T203 413Z" />
<glyph unicode="&#xb1;" horiz-adv-x="550" d="M470 140Q482 140 485 136T488 123Q488 110 482 97T460 76T416 67L52 61Q40 61 37 67T34 83Q34 93 41 104T63 123T102 132L470 140ZM491 370Q503 370 506 366T509 353Q509 340 503 327T481 306T437 297L73 289Q61
289 58 295T55 311Q55 321 62 332T84 351T123 360L491 370ZM334 429L312 220Q310 196 300 181T278 159T255 152Q245 152 240 155T234 170Q234 177 236 194T239 219L258 433Q261 461 270 476T294 498T321 505Q329 505 334 502T339 487Q339 478 338 465T334 429Z"
/>
<glyph unicode="&#xb2;" horiz-adv-x="388" d="M80 341L153 405Q205 450 242 491T279 573Q279 604 264 618T225 633Q197 633 173 618T136 596Q122 589 117 586T105 583Q97 583 92 596T86 628Q86 645 106 660T160 686T236 696Q276 696 309 687T362 654T383 587Q383
550 365 518T316 457T252 404L126 311L130 328L342 378Q353 381 362 383T377 385Q380 385 383 382T387 372Q387 361 384 345T375 314T359 288T336 277H279Q255 277 224 276T163 274T112 272T84 271Q74 271 69 280T64 299Q64 311 67 322T80 341Z" />
<glyph unicode="&#xb3;" horiz-adv-x="407" d="M270 494L276 512Q301 507 325 494T364 460T380 412Q380 369 351 338T275 291T175 274Q127 274 99 286T59 315T46 349Q46 366 49 373T59 381Q65 381 84 370T132 348T191 337Q232 337 253 356T275 411Q275 446 257
460T225 481L272 488Q258 480 238 473T197 462T163 458Q151 458 141 474T131 508Q131 527 145 527Q159 527 185 525T237 520T273 516L233 507Q250 518 260 539T271 579Q271 608 257 620T210 632Q191 632 171 625T132 609Q120 604 113 601T99 597Q93 597 89 609T84
635Q84 655 103 668T154 689T223 696Q291 696 328 673T366 607Q366 576 352 555T316 519T270 494Z" />
<glyph unicode="&#xb4;" horiz-adv-x="200" d="M-260 551Q-268 545 -268 538Q-268 531 -260 527T-242 522Q-237 522 -232 522T-220 526L-37 613Q-27 618 -24 622T-20 635Q-20 652 -28 665T-49 687T-74 696Q-88 696 -99 687L-260 551Z" />
<glyph unicode="&#xb5;" horiz-adv-x="516" d="M22 -150Q22 -137 22 -125T23 -95T29 -43L92 491H162Q179 491 184 472T190 424Q190 403 188 369T178 294L174 270Q169 238 166 211T163 163Q163 125 171 105T194 85Q206 85 226 107T268 165T310 242T342 323T355
390Q355 413 350 428T344 454Q344 465 361 473T401 486T441 491Q458 491 467 471T473 414L426 -10H356Q344 -10 337 2T328 31T325 55Q325 84 336 121T366 229Q327 139 299 86T246 9T194 -15Q157 -15 138 23T116 122L117 111L140 -219H70Q45 -219 34 -196T22 -150Z"
/>
<glyph unicode="&#xb6;" horiz-adv-x="626" d="M42 283Q42 373 74 448T166 579T305 665T479 696Q488 696 508 694T553 689T603 684T645 682Q661 682 661 665Q661 650 639 636T586 613T526 606L574 652L525 208Q518 149 513 89T503 -24Q500 -49 486 -82T453 -146T416
-198T385 -219Q360 -219 360 -188Q360 -167 363 -142L459 659L478 620Q388 620 320 580T214 465T175 283Q175 177 216 114T328 32Q346 28 354 26T363 13Q363 2 347 -7T311 -16Q231 -16 171 17T76 118T42 283Z" />
<glyph unicode="&#xb7;" horiz-adv-x="207" d="M102 190Q74 190 54 209T33 259Q33 296 57 316T112 337Q141 337 160 320T180 269Q180 235 157 213T102 190Z" />
<glyph unicode="&#xb8;" horiz-adv-x="200" d="M-285 20Q-283 26 -280 30T-270 35L-251 39Q-243 41 -239 37T-237 24L-264 -83L-275 -44Q-225 -44 -189 -62T-153 -119Q-153 -147 -168 -166T-210 -197T-267 -214T-328 -220Q-341 -220 -346 -216T-351 -205Q-351
-191 -344 -182T-324 -172Q-292 -168 -266 -159T-240 -125Q-240 -113 -248 -109T-283 -101Q-292 -99 -300 -93T-308 -72Q-308 -68 -307 -63T-305 -53L-285 20Z" />
<glyph unicode="&#xb9;" horiz-adv-x="343" d="M26 282Q26 296 57 308T143 336L172 594L84 580Q76 579 73 582T69 591Q69 601 81 616T137 651L223 689Q228 691 236 693T250 696Q269 696 271 681T269 629L236 353L315 370Q322 372 327 372T333 372Q336 372 338
368T340 359Q340 350 335 331T321 296T299 279H169Q144 279 115 278T63 274T36 272Q26 272 26 282Z" />
<glyph unicode="&#xba;" horiz-adv-x="427" d="M210 283Q138 283 94 324T49 450Q49 518 79 574T160 663T271 696Q342 696 386 655T431 529Q431 462 401 406T320 317T210 283ZM227 346Q279 346 303 395T327 520Q327 576 309 604T254 632Q219 632 197 608T164 545T153
460Q153 404 173 375T227 346Z" />
<glyph unicode="&#xbb;" horiz-adv-x="561" d="M245 58V58Q255 58 264 61T281 70L518 220Q529 227 533 233T537 246Q537 253 534 258T525 268L360 402Q343 416 332 422T310 428Q301 428 290 421T269 403T260 382Q260 376 262 371T271 361L419 244L351 200Q292
162 265 138T231 100T223 77Q223 67 229 63T245 58ZM35 58V58Q45 58 54 61T71 70L308 220Q319 227 323 233T327 246Q327 253 324 258T315 268L150 402Q133 416 122 422T100 428Q91 428 80 421T59 403T50 382Q50 376 52 371T61 361L209 244L141 200Q82 162 55 138T21
100T13 77Q13 67 19 63T35 58Z" />
<glyph unicode="&#xbc;" horiz-adv-x="851" d="M26 282Q26 296 57 308T143 336L172 594L84 580Q76 579 73 582T69 591Q69 601 81 616T137 651L223 689Q228 691 236 693T250 696Q269 696 271 681T269 629L236 353L315 370Q322 372 327 372T333 372Q336 372 338
368T340 359Q340 350 335 331T321 296T299 279H169Q144 279 115 278T63 274T36 272Q26 272 26 282ZM684 583L269 10Q259 -3 254 -10T235 -18Q225 -18 217 -3T209 23Q209 36 217 50T238 83L651 664Q660 677 664 681T678 685Q694 685 702 668T710 642Q710 623 701
609T684 583ZM479 125Q480 135 484 145T496 163L678 371Q701 397 714 401T747 406H784Q802 406 808 401T814 378Q814 356 812 333T804 267L774 -13H706Q690 -13 690 24Q690 49 692 76T697 126L723 373L739 349L534 105L525 136H753Q792 136 823 142T861 148Q871
148 871 137Q871 128 859 114T829 87T794 75L514 74Q489 74 482 78T476 99L479 125Z" />
<glyph unicode="&#xbd;" horiz-adv-x="909" d="M26 282Q26 296 57 308T143 336L172 594L84 580Q76 579 73 582T69 591Q69 601 81 616T137 651L223 689Q228 691 236 693T250 696Q269 696 271 681T269 629L236 353L315 370Q322 372 327 372T333 372Q336 372 338
368T340 359Q340 350 335 331T321 296T299 279H169Q144 279 115 278T63 274T36 272Q26 272 26 282ZM684 583L269 10Q259 -3 254 -10T235 -18Q225 -18 217 -3T209 23Q209 36 217 50T238 83L651 664Q660 677 664 681T678 685Q694 685 702 668T710 642Q710 623 701
609T684 583ZM606 64L679 128Q731 173 768 214T805 296Q805 327 790 341T751 356Q723 356 699 341T662 319Q648 312 643 309T631 306Q623 306 618 319T612 351Q612 368 632 383T686 409T762 419Q802 419 835 410T888 377T909 310Q909 273 891 241T842 180T778 127L652
34L656 51L868 101Q879 104 888 106T903 108Q906 108 909 105T913 95Q913 84 910 68T901 37T885 11T862 0H805Q781 0 750 -1T689 -3T638 -5T610 -6Q600 -6 595 3T590 22Q590 34 593 45T606 64Z" />
<glyph unicode="&#xbe;" horiz-adv-x="855" d="M270 494L276 512Q301 507 325 494T364 460T380 412Q380 369 351 338T275 291T175 274Q127 274 99 286T59 315T46 349Q46 366 49 373T59 381Q65 381 84 370T132 348T191 337Q232 337 253 356T275 411Q275 446 257
460T225 481L272 488Q258 480 238 473T197 462T163 458Q151 458 141 474T131 508Q131 527 145 527Q159 527 185 525T237 520T273 516L233 507Q250 518 260 539T271 579Q271 608 257 620T210 632Q191 632 171 625T132 609Q120 604 113 601T99 597Q93 597 89 609T84
635Q84 655 103 668T154 689T223 696Q291 696 328 673T366 607Q366 576 352 555T316 519T270 494ZM688 586L273 13Q263 0 258 -7T239 -15Q229 -15 221 0T213 26Q213 39 221 53T242 86L655 667Q664 680 668 684T682 688Q698 688 706 671T714 645Q714 626 705 612T688
586ZM483 128Q484 138 488 148T500 166L682 374Q705 400 718 404T751 409H788Q806 409 812 404T818 381Q818 359 816 336T808 270L778 -10H710Q694 -10 694 27Q694 52 696 79T701 129L727 376L743 352L538 108L529 139H757Q796 139 827 145T865 151Q875 151 875
140Q875 131 863 117T833 90T798 78L518 77Q493 77 486 81T480 102L483 128Z" />
<glyph unicode="&#xbf;" horiz-adv-x="393" d="M-25 -81Q-25 -33 -1 4T60 70T140 119T218 153L134 90Q161 167 177 208T208 265T245 281Q257 281 263 275T268 255L262 145Q261 122 253 112T218 85Q162 48 134 15T105 -65Q105 -102 122 -124T179 -147Q216 -147
241 -134T284 -108T310 -95Q321 -95 327 -113T334 -149Q334 -174 294 -197T171 -221Q78 -221 27 -181T-25 -81ZM233 491Q262 491 282 472T302 422Q302 385 279 365T223 344Q195 344 175 361T155 412Q155 446 178 468T233 491Z" />
<glyph unicode="&#xc0;" horiz-adv-x="650" d="M12 -14Q-15 -14 -15 3Q-15 11 -7 29L290 628Q297 643 319 658T372 683T436 694Q444 694 451 689T462 665Q479 550 503 434T558 207Q572 160 582 131T602 87Q613 72 621 63T630 44Q630 34 619 24T590 6T555 -7T524
-12Q502 -12 479 27T434 170L347 587L366 599L171 189Q158 161 153 142T146 108T142 72Q140 53 123 38T84 11T41 -7T12 -14ZM138 190V265H510V190H138ZM494 756L364 892Q360 897 353 899T338 901Q326 901 314 893T293 871T284 840Q284 832 287 828T301 818L454
731Q460 728 466 728T476 727Q485 727 493 731T502 743Q502 746 500 749T494 756Z" />
<glyph unicode="&#xc1;" horiz-adv-x="650" d="M12 -14Q-15 -14 -15 3Q-15 11 -7 29L290 628Q297 643 319 658T372 683T436 694Q444 694 451 689T462 665Q479 550 503 434T558 207Q572 160 582 131T602 87Q613 72 621 63T630 44Q630 34 619 24T590 6T555 -7T524
-12Q502 -12 479 27T434 170L347 587L366 599L171 189Q158 161 153 142T146 108T142 72Q140 53 123 38T84 11T41 -7T12 -14ZM138 190V265H510V190H138ZM263 756Q255 750 255 743Q255 736 263 732T281 727Q286 727 291 727T303 731L486 818Q496 823 499 827T503
840Q503 857 495 870T474 892T449 901Q435 901 424 892L263 756Z" />
<glyph unicode="&#xc2;" horiz-adv-x="650" d="M12 -14Q-15 -14 -15 3Q-15 11 -7 29L290 628Q297 643 319 658T372 683T436 694Q444 694 451 689T462 665Q479 550 503 434T558 207Q572 160 582 131T602 87Q613 72 621 63T630 44Q630 34 619 24T590 6T555 -7T524
-12Q502 -12 479 27T434 170L347 587L366 599L171 189Q158 161 153 142T146 108T142 72Q140 53 123 38T84 11T41 -7T12 -14ZM138 190V265H510V190H138ZM233 761V761Q226 754 228 749T240 742L277 738Q285 737 290 739T299 745L384 832L454 746Q459 741 465 737T488
733L526 735Q534 736 537 741T536 754L461 868Q448 888 436 894T401 900Q379 900 367 894T346 879L233 761Z" />
<glyph unicode="&#xc3;" horiz-adv-x="650" d="M12 -14Q-15 -14 -15 3Q-15 11 -7 29L290 628Q297 643 319 658T372 683T436 694Q444 694 451 689T462 665Q479 550 503 434T558 207Q572 160 582 131T602 87Q613 72 621 63T630 44Q630 34 619 24T590 6T555 -7T524
-12Q502 -12 479 27T434 170L347 587L366 599L171 189Q158 161 153 142T146 108T142 72Q140 53 123 38T84 11T41 -7T12 -14ZM138 190V265H510V190H138ZM248 786Q248 810 257 832T282 868T322 882Q337 882 358 874T400 854T439 834T464 825Q474 825 478 835T487
860Q490 871 494 875T506 879Q523 879 532 874T541 851Q541 822 532 798T505 760T467 746Q439 746 414 760T366 788T324 803Q317 803 312 796T301 771Q298 760 294 756T280 752Q269 752 259 758T248 786Z" />
<glyph unicode="&#xc4;" horiz-adv-x="650" d="M12 -14Q-15 -14 -15 3Q-15 11 -7 29L290 628Q297 643 319 658T372 683T436 694Q444 694 451 689T462 665Q479 550 503 434T558 207Q572 160 582 131T602 87Q613 72 621 63T630 44Q630 34 619 24T590 6T555 -7T524
-12Q502 -12 479 27T434 170L347 587L366 599L171 189Q158 161 153 142T146 108T142 72Q140 53 123 38T84 11T41 -7T12 -14ZM138 190V265H510V190H138ZM466 764Q443 764 426 779T409 821Q409 851 429 868T475 886Q498 886 514 872T531 829Q531 801 512 783T466
764ZM305 764Q282 764 265 779T248 821Q248 851 268 868T314 886Q337 886 353 872T370 829Q370 801 351 783T305 764Z" />
<glyph unicode="&#xc5;" horiz-adv-x="650" d="M12 -14Q-15 -14 -15 3Q-15 11 -7 29L290 628Q297 643 319 658T372 683T436 694Q444 694 451 689T462 665Q479 550 503 434T558 207Q572 160 582 131T602 87Q613 72 621 63T630 44Q630 34 619 24T590 6T555 -7T524
-12Q502 -12 479 27T434 170L347 587L366 599L171 189Q158 161 153 142T146 108T142 72Q140 53 123 38T84 11T41 -7T12 -14ZM138 190V265H510V190H138ZM388 731Q344 731 318 756T292 818Q292 856 320 884T394 912Q437 912 462 887T488 826Q488 787 460 759T388
731ZM389 777Q407 777 419 790T432 824Q432 845 421 855T393 866Q374 866 361 855T348 820Q348 801 360 789T389 777Z" />
<glyph unicode="&#xc6;" horiz-adv-x="877" d="M-3 -14Q-30 -14 -24 3Q-21 13 -8 29L439 616Q467 652 496 666T580 680L516 585L219 189Q189 149 175 111T146 43Q138 24 118 13T73 -4T27 -12T-3 -14ZM210 190V265H562V190H210ZM478 -12Q460 -12 451 10T441 59Q441
98 450 186L500 680H654Q725 680 766 682T829 687T861 690Q872 690 876 687T881 668Q881 650 874 629T856 593T829 578Q819 578 796 581T744 588L614 605L569 159Q567 138 567 117T570 75L784 117Q802 121 814 123T831 126Q843 126 843 112Q843 87 835 61T811 18T774
0H744Q632 0 568 -6T478 -12ZM529 315L542 392H590Q633 392 671 395T735 401T768 404Q776 404 780 400T784 387Q784 372 764 356T715 329T657 317L529 315Z" />
<glyph unicode="&#xc7;" horiz-adv-x="597" d="M322 -16Q238 -16 176 17T78 118T43 283Q43 373 71 448T152 579T276 665T436 696Q518 696 559 679T600 616Q600 592 592 575T573 558Q564 558 553 564T527 577Q503 589 475 602T399 616Q338 616 288 576T207 466T176
301Q176 222 199 169T262 90T347 64Q385 64 415 78T467 112T508 145T540 160Q551 160 558 155T566 134Q566 95 533 61T445 6T322 -16ZM253 20Q255 26 258 30T268 35L287 39Q295 41 299 37T301 24L274 -83L263 -44Q313 -44 349 -62T385 -119Q385 -147 370 -166T328
-197T271 -214T210 -220Q197 -220 192 -216T187 -205Q187 -191 194 -182T214 -172Q246 -168 272 -159T298 -125Q298 -113 290 -109T255 -101Q246 -99 238 -93T230 -72Q230 -68 231 -63T233 -53L253 20Z" />
<glyph unicode="&#xc8;" horiz-adv-x="492" d="M93 -12Q75 -12 66 10T56 59Q56 98 65 186L115 680H269Q340 680 381 682T444 687T476 690Q487 690 491 687T496 668Q496 650 489 629T471 593T444 578Q434 578 411 581T359 588L229 605L184 159Q182 138 182 117T185
75L399 117Q417 121 429 123T446 126Q458 126 458 112Q458 87 450 61T426 18T389 0H359Q247 0 183 -6T93 -12ZM144 315L157 392H205Q248 392 286 395T350 401T383 404Q391 404 395 400T399 387Q399 372 379 356T330 329T272 317L144 315ZM410 756L280 892Q276 897
269 899T254 901Q242 901 230 893T209 871T200 840Q200 832 203 828T217 818L370 731Q376 728 382 728T392 727Q401 727 409 731T418 743Q418 746 416 749T410 756Z" />
<glyph unicode="&#xc9;" horiz-adv-x="492" d="M93 -12Q75 -12 66 10T56 59Q56 98 65 186L115 680H269Q340 680 381 682T444 687T476 690Q487 690 491 687T496 668Q496 650 489 629T471 593T444 578Q434 578 411 581T359 588L229 605L184 159Q182 138 182 117T185
75L399 117Q417 121 429 123T446 126Q458 126 458 112Q458 87 450 61T426 18T389 0H359Q247 0 183 -6T93 -12ZM144 315L157 392H205Q248 392 286 395T350 401T383 404Q391 404 395 400T399 387Q399 372 379 356T330 329T272 317L144 315ZM179 756Q171 750 171 743Q171
736 179 732T197 727Q202 727 207 727T219 731L402 818Q412 823 415 827T419 840Q419 857 411 870T390 892T365 901Q351 901 340 892L179 756Z" />
<glyph unicode="&#xca;" horiz-adv-x="492" d="M93 -12Q75 -12 66 10T56 59Q56 98 65 186L115 680H269Q340 680 381 682T444 687T476 690Q487 690 491 687T496 668Q496 650 489 629T471 593T444 578Q434 578 411 581T359 588L229 605L184 159Q182 138 182 117T185
75L399 117Q417 121 429 123T446 126Q458 126 458 112Q458 87 450 61T426 18T389 0H359Q247 0 183 -6T93 -12ZM144 315L157 392H205Q248 392 286 395T350 401T383 404Q391 404 395 400T399 387Q399 372 379 356T330 329T272 317L144 315ZM149 761V761Q142 754 144
749T156 742L193 738Q201 737 206 739T215 745L300 832L370 746Q375 741 381 737T404 733L442 735Q450 736 453 741T452 754L377 868Q364 888 352 894T317 900Q295 900 283 894T262 879L149 761Z" />
<glyph unicode="&#xcb;" horiz-adv-x="492" d="M93 -12Q75 -12 66 10T56 59Q56 98 65 186L115 680H269Q340 680 381 682T444 687T476 690Q487 690 491 687T496 668Q496 650 489 629T471 593T444 578Q434 578 411 581T359 588L229 605L184 159Q182 138 182 117T185
75L399 117Q417 121 429 123T446 126Q458 126 458 112Q458 87 450 61T426 18T389 0H359Q247 0 183 -6T93 -12ZM144 315L157 392H205Q248 392 286 395T350 401T383 404Q391 404 395 400T399 387Q399 372 379 356T330 329T272 317L144 315ZM382 764Q359 764 342 779T325
821Q325 851 345 868T391 886Q414 886 430 872T447 829Q447 801 428 783T382 764ZM221 764Q198 764 181 779T164 821Q164 851 184 868T230 886Q253 886 269 872T286 829Q286 801 267 783T221 764Z" />
<glyph unicode="&#xcc;" horiz-adv-x="258" d="M94 -8Q80 -8 72 4T59 35T55 73Q55 114 60 152T69 234L117 695H187Q213 695 221 676T230 629Q230 605 228 586T223 540T214 466L164 -8H94ZM293 756L163 892Q159 897 152 899T137 901Q125 901 113 893T92 871T83
840Q83 832 86 828T100 818L253 731Q259 728 265 728T275 727Q284 727 292 731T301 743Q301 746 299 749T293 756Z" />
<glyph unicode="&#xcd;" horiz-adv-x="258" d="M94 -8Q80 -8 72 4T59 35T55 73Q55 114 60 152T69 234L117 695H187Q213 695 221 676T230 629Q230 605 228 586T223 540T214 466L164 -8H94ZM62 756Q54 750 54 743Q54 736 62 732T80 727Q85 727 90 727T102 731L285
818Q295 823 298 827T302 840Q302 857 294 870T273 892T248 901Q234 901 223 892L62 756Z" />
<glyph unicode="&#xce;" horiz-adv-x="258" d="M94 -8Q80 -8 72 4T59 35T55 73Q55 114 60 152T69 234L117 695H187Q213 695 221 676T230 629Q230 605 228 586T223 540T214 466L164 -8H94ZM32 761V761Q25 754 27 749T39 742L76 738Q84 737 89 739T98 745L183 832L253
746Q258 741 264 737T287 733L325 735Q333 736 336 741T335 754L260 868Q247 888 235 894T200 900Q178 900 166 894T145 879L32 761Z" />
<glyph unicode="&#xcf;" horiz-adv-x="258" d="M94 -8Q80 -8 72 4T59 35T55 73Q55 114 60 152T69 234L117 695H187Q213 695 221 676T230 629Q230 605 228 586T223 540T214 466L164 -8H94ZM265 764Q242 764 225 779T208 821Q208 851 228 868T274 886Q297 886 313
872T330 829Q330 801 311 783T265 764ZM104 764Q81 764 64 779T47 821Q47 851 67 868T113 886Q136 886 152 872T169 829Q169 801 150 783T104 764Z" />
<glyph unicode="&#xd0;" horiz-adv-x="681" d="M33 321Q23 321 19 324T15 335Q15 356 32 376T72 397L376 396Q388 396 391 394T394 383Q394 379 388 364T372 335T347 321H33ZM103 -8Q85 -8 76 12T66 59Q66 98 75 186L125 680Q179 685 232 687T332 690Q489 690
574 614T660 400Q660 284 611 194T470 52T244 0Q204 0 170 -4T103 -8ZM193 75Q301 75 375 114T488 224T527 388Q527 498 466 556T264 615H239L194 159Q193 142 193 120T193 75Z" />
<glyph unicode="&#xd1;" horiz-adv-x="660" d="M76 -12Q60 -12 55 3T50 39Q50 74 54 113T62 191L117 695L190 696Q208 696 218 692T242 664Q290 580 346 498T453 340T537 203L511 172L533 387Q541 464 541 511T536 584T527 626T522 654Q522 664 532 671T557 684T586
691T611 694Q630 694 640 674T650 634Q650 617 647 595T638 524L624 392Q614 298 611 239T607 144T608 87T610 46Q610 35 599 25T571 6T538 -6T511 -11Q502 -11 495 -2T489 23Q490 36 482 56T462 99T441 137Q409 195 362 262T264 402T174 550L188 552L161 293Q154
224 153 180T155 109T162 69T169 47T173 28Q173 17 162 10T134 -3T101 -10T76 -12ZM247 786Q247 810 256 832T281 868T321 882Q336 882 357 874T399 854T438 834T463 825Q473 825 477 835T486 860Q489 871 493 875T505 879Q522 879 531 874T540 851Q540 822 531
798T504 760T466 746Q438 746 413 760T365 788T323 803Q316 803 311 796T300 771Q297 760 293 756T279 752Q268 752 258 758T247 786Z" />
<glyph unicode="&#xd2;" horiz-adv-x="720" d="M329 -16Q243 -16 179 17T79 118T43 283Q43 373 71 448T149 579T267 665T413 696Q548 696 623 621T699 398Q699 308 671 233T593 101T475 15T329 -16ZM342 64Q384 64 424 86T496 151T547 250T566 378Q566 460 544
512T484 590T400 616Q339 616 288 577T207 466T176 302Q176 221 198 168T259 90T342 64ZM524 756L394 892Q390 897 383 899T368 901Q356 901 344 893T323 871T314 840Q314 832 317 828T331 818L484 731Q490 728 496 728T506 727Q515 727 523 731T532 743Q532 746
530 749T524 756Z" />
<glyph unicode="&#xd3;" horiz-adv-x="720" d="M329 -16Q243 -16 179 17T79 118T43 283Q43 373 71 448T149 579T267 665T413 696Q548 696 623 621T699 398Q699 308 671 233T593 101T475 15T329 -16ZM342 64Q384 64 424 86T496 151T547 250T566 378Q566 460 544
512T484 590T400 616Q339 616 288 577T207 466T176 302Q176 221 198 168T259 90T342 64ZM293 756Q285 750 285 743Q285 736 293 732T311 727Q316 727 321 727T333 731L516 818Q526 823 529 827T533 840Q533 857 525 870T504 892T479 901Q465 901 454 892L293 756Z"
/>
<glyph unicode="&#xd4;" horiz-adv-x="720" d="M329 -16Q243 -16 179 17T79 118T43 283Q43 373 71 448T149 579T267 665T413 696Q548 696 623 621T699 398Q699 308 671 233T593 101T475 15T329 -16ZM342 64Q384 64 424 86T496 151T547 250T566 378Q566 460 544
512T484 590T400 616Q339 616 288 577T207 466T176 302Q176 221 198 168T259 90T342 64ZM263 761V761Q256 754 258 749T270 742L307 738Q315 737 320 739T329 745L414 832L484 746Q489 741 495 737T518 733L556 735Q564 736 567 741T566 754L491 868Q478 888 466
894T431 900Q409 900 397 894T376 879L263 761Z" />
<glyph unicode="&#xd5;" horiz-adv-x="720" d="M329 -16Q243 -16 179 17T79 118T43 283Q43 373 71 448T149 579T267 665T413 696Q548 696 623 621T699 398Q699 308 671 233T593 101T475 15T329 -16ZM342 64Q384 64 424 86T496 151T547 250T566 378Q566 460 544
512T484 590T400 616Q339 616 288 577T207 466T176 302Q176 221 198 168T259 90T342 64ZM278 786Q278 810 287 832T312 868T352 882Q367 882 388 874T430 854T469 834T494 825Q504 825 508 835T517 860Q520 871 524 875T536 879Q553 879 562 874T571 851Q571 822
562 798T535 760T497 746Q469 746 444 760T396 788T354 803Q347 803 342 796T331 771Q328 760 324 756T310 752Q299 752 289 758T278 786Z" />
<glyph unicode="&#xd6;" horiz-adv-x="720" d="M329 -16Q243 -16 179 17T79 118T43 283Q43 373 71 448T149 579T267 665T413 696Q548 696 623 621T699 398Q699 308 671 233T593 101T475 15T329 -16ZM342 64Q384 64 424 86T496 151T547 250T566 378Q566 460 544
512T484 590T400 616Q339 616 288 577T207 466T176 302Q176 221 198 168T259 90T342 64ZM496 764Q473 764 456 779T439 821Q439 851 459 868T505 886Q528 886 544 872T561 829Q561 801 542 783T496 764ZM335 764Q312 764 295 779T278 821Q278 851 298 868T344 886Q367
886 383 872T400 829Q400 801 381 783T335 764Z" />
<glyph unicode="&#xd7;" horiz-adv-x="550" d="M144 481L441 169Q459 151 462 134T460 102T448 80Q441 73 435 71T419 78L124 386Q95 416 96 439T112 476Q117 481 126 485T144 481ZM415 484Q423 492 431 491T445 484Q459 470 460 451T433 400L124 83Q116 74 108
76T92 85Q82 96 81 114T104 159L415 484Z" />
<glyph unicode="&#xd8;" horiz-adv-x="710" d="M209 -69Q202 -72 189 -64T171 -46Q164 -24 182 18L506 763Q508 768 510 770T516 773Q522 775 536 767T554 747Q558 736 555 720T541 682L219 -57Q218 -61 215 -64T209 -69ZM329 -16Q243 -16 179 17T79 118T43 283Q43
373 71 448T149 579T267 665T413 696Q548 696 623 621T699 398Q699 308 671 233T593 101T475 15T329 -16ZM342 64Q384 64 424 86T496 151T547 250T566 378Q566 460 544 512T484 590T400 616Q339 616 288 577T207 466T176 302Q176 221 198 168T259 90T342 64Z" />
<glyph unicode="&#xd9;" horiz-adv-x="658" d="M317 -16Q220 -16 162 6T81 82T68 226L117 695H197Q217 695 224 686T232 649Q232 625 230 601T223 545T214 466L192 262Q181 160 214 112T341 64Q384 64 419 81T478 134T508 230L529 424Q535 480 534 517T528 578T519
619T515 649Q515 661 530 671T567 688T604 694Q619 694 627 685T639 661T643 634Q643 617 640 587T633 524L602 238Q591 135 557 80T463 5T317 -16ZM496 756L366 892Q362 897 355 899T340 901Q328 901 316 893T295 871T286 840Q286 832 289 828T303 818L456 731Q462
728 468 728T478 727Q487 727 495 731T504 743Q504 746 502 749T496 756Z" />
<glyph unicode="&#xda;" horiz-adv-x="658" d="M317 -16Q220 -16 162 6T81 82T68 226L117 695H197Q217 695 224 686T232 649Q232 625 230 601T223 545T214 466L192 262Q181 160 214 112T341 64Q384 64 419 81T478 134T508 230L529 424Q535 480 534 517T528 578T519
619T515 649Q515 661 530 671T567 688T604 694Q619 694 627 685T639 661T643 634Q643 617 640 587T633 524L602 238Q591 135 557 80T463 5T317 -16ZM265 756Q257 750 257 743Q257 736 265 732T283 727Q288 727 293 727T305 731L488 818Q498 823 501 827T505 840Q505
857 497 870T476 892T451 901Q437 901 426 892L265 756Z" />
<glyph unicode="&#xdb;" horiz-adv-x="658" d="M317 -16Q220 -16 162 6T81 82T68 226L117 695H197Q217 695 224 686T232 649Q232 625 230 601T223 545T214 466L192 262Q181 160 214 112T341 64Q384 64 419 81T478 134T508 230L529 424Q535 480 534 517T528 578T519
619T515 649Q515 661 530 671T567 688T604 694Q619 694 627 685T639 661T643 634Q643 617 640 587T633 524L602 238Q591 135 557 80T463 5T317 -16ZM235 761V761Q228 754 230 749T242 742L279 738Q287 737 292 739T301 745L386 832L456 746Q461 741 467 737T490
733L528 735Q536 736 539 741T538 754L463 868Q450 888 438 894T403 900Q381 900 369 894T348 879L235 761Z" />
<glyph unicode="&#xdc;" horiz-adv-x="658" d="M317 -16Q220 -16 162 6T81 82T68 226L117 695H197Q217 695 224 686T232 649Q232 625 230 601T223 545T214 466L192 262Q181 160 214 112T341 64Q384 64 419 81T478 134T508 230L529 424Q535 480 534 517T528 578T519
619T515 649Q515 661 530 671T567 688T604 694Q619 694 627 685T639 661T643 634Q643 617 640 587T633 524L602 238Q591 135 557 80T463 5T317 -16ZM468 764Q445 764 428 779T411 821Q411 851 431 868T477 886Q500 886 516 872T533 829Q533 801 514 783T468 764ZM307
764Q284 764 267 779T250 821Q250 851 270 868T316 886Q339 886 355 872T372 829Q372 801 353 783T307 764Z" />
<glyph unicode="&#xdd;" horiz-adv-x="578" d="M247 261L157 475Q137 523 121 553T84 600Q59 620 51 629T43 648Q43 657 60 667T99 686T136 694Q177 694 204 661T252 570L326 362L296 340L396 494Q424 536 430 567T439 619Q441 637 461 650T508 674T559 689T596
694Q614 694 614 678Q614 668 606 653T584 619L332 261H247ZM242 -8Q224 -8 217 8T210 51Q210 71 213 96L240 339L359 321L323 -8H242ZM220 756Q212 750 212 743Q212 736 220 732T238 727Q243 727 248 727T260 731L443 818Q453 823 456 827T460 840Q460 857 452
870T431 892T406 901Q392 901 381 892L220 756Z" />
<glyph unicode="&#xde;" horiz-adv-x="556" d="M265 132Q254 132 241 139T218 157T208 179Q208 190 215 194T230 200Q275 209 314 231T378 291T403 381Q403 441 359 466T216 496L209 572H261Q407 572 471 531T536 394Q536 336 510 288T442 205T353 151T265 132ZM94
-8Q80 -8 72 4T59 35T55 73Q55 114 60 152T69 234L117 695H187Q213 695 221 676T230 629Q230 605 228 586T223 540T214 466L164 -8H94Z" />
<glyph unicode="&#xdf;" horiz-adv-x="614" d="M46 -219Q33 -219 27 -211T21 -188Q21 -167 24 -142L98 471Q108 548 143 598T231 672T349 696Q439 696 480 663T521 573Q521 543 500 511T437 451L384 415Q377 411 369 399T360 368Q360 346 376 334T420 309L488
279Q529 261 554 235T580 159Q580 100 552 61T477 3T377 -16Q304 -16 261 7T218 71Q218 89 223 104T240 120Q244 120 249 118T268 107Q297 88 335 74T406 59Q438 59 452 74T467 116Q467 135 456 147T419 176L357 216Q317 242 294 270T270 344Q270 372 280 398T326
455L344 470Q379 499 392 513T406 553Q406 574 391 589T354 612T310 621Q261 621 239 587T211 499L178 208Q171 149 166 89T156 -24Q153 -49 141 -82T110 -146T75 -198T46 -219ZM41 405Q34 405 31 410T30 422L37 441Q45 461 52 468T91 475H135L143 405H41Z" />
<glyph unicode="&#xe0;" horiz-adv-x="534" d="M128 -16Q72 -16 48 29T24 157Q24 230 45 291T104 396T190 465T294 490Q337 490 372 479T433 455L404 350Q377 368 344 383T282 406T239 415Q211 415 188 388T151 312T137 200Q137 142 145 112T173 82Q186 82 217
111T292 210T385 397L413 308Q359 188 310 117T216 15T128 -16ZM367 -10Q347 -10 343 9T339 51Q339 68 343 93T355 147T370 204L392 279L363 305L387 456Q419 461 443 469T484 483T508 489Q519 489 519 477Q519 472 507 435T480 339T458 213L437 -10H367ZM402 551L272
687Q268 692 261 694T246 696Q234 696 222 688T201 666T192 635Q192 627 195 623T209 613L362 526Q368 523 374 523T384 522Q393 522 401 526T410 538Q410 541 408 544T402 551Z" />
<glyph unicode="&#xe1;" horiz-adv-x="534" d="M128 -16Q72 -16 48 29T24 157Q24 230 45 291T104 396T190 465T294 490Q337 490 372 479T433 455L404 350Q377 368 344 383T282 406T239 415Q211 415 188 388T151 312T137 200Q137 142 145 112T173 82Q186 82 217
111T292 210T385 397L413 308Q359 188 310 117T216 15T128 -16ZM367 -10Q347 -10 343 9T339 51Q339 68 343 93T355 147T370 204L392 279L363 305L387 456Q419 461 443 469T484 483T508 489Q519 489 519 477Q519 472 507 435T480 339T458 213L437 -10H367ZM171 551Q163
545 163 538Q163 531 171 527T189 522Q194 522 199 522T211 526L394 613Q404 618 407 622T411 635Q411 652 403 665T382 687T357 696Q343 696 332 687L171 551Z" />
<glyph unicode="&#xe2;" horiz-adv-x="534" d="M128 -16Q72 -16 48 29T24 157Q24 230 45 291T104 396T190 465T294 490Q337 490 372 479T433 455L404 350Q377 368 344 383T282 406T239 415Q211 415 188 388T151 312T137 200Q137 142 145 112T173 82Q186 82 217
111T292 210T385 397L413 308Q359 188 310 117T216 15T128 -16ZM367 -10Q347 -10 343 9T339 51Q339 68 343 93T355 147T370 204L392 279L363 305L387 456Q419 461 443 469T484 483T508 489Q519 489 519 477Q519 472 507 435T480 339T458 213L437 -10H367ZM141 556V556Q134
549 136 544T148 537L185 533Q193 532 198 534T207 540L292 627L362 541Q367 536 373 532T396 528L434 530Q442 531 445 536T444 549L369 663Q356 683 344 689T309 695Q287 695 275 689T254 674L141 556Z" />
<glyph unicode="&#xe3;" horiz-adv-x="534" d="M128 -16Q72 -16 48 29T24 157Q24 230 45 291T104 396T190 465T294 490Q337 490 372 479T433 455L404 350Q377 368 344 383T282 406T239 415Q211 415 188 388T151 312T137 200Q137 142 145 112T173 82Q186 82 217
111T292 210T385 397L413 308Q359 188 310 117T216 15T128 -16ZM367 -10Q347 -10 343 9T339 51Q339 68 343 93T355 147T370 204L392 279L363 305L387 456Q419 461 443 469T484 483T508 489Q519 489 519 477Q519 472 507 435T480 339T458 213L437 -10H367ZM156 581Q156
605 165 627T190 663T230 677Q245 677 266 669T308 649T347 629T372 620Q382 620 386 630T395 655Q398 666 402 670T414 674Q431 674 440 669T449 646Q449 617 440 593T413 555T375 541Q347 541 322 555T274 583T232 598Q225 598 220 591T209 566Q206 555 202 551T188
547Q177 547 167 553T156 581Z" />
<glyph unicode="&#xe4;" horiz-adv-x="534" d="M128 -16Q72 -16 48 29T24 157Q24 230 45 291T104 396T190 465T294 490Q337 490 372 479T433 455L404 350Q377 368 344 383T282 406T239 415Q211 415 188 388T151 312T137 200Q137 142 145 112T173 82Q186 82 217
111T292 210T385 397L413 308Q359 188 310 117T216 15T128 -16ZM367 -10Q347 -10 343 9T339 51Q339 68 343 93T355 147T370 204L392 279L363 305L387 456Q419 461 443 469T484 483T508 489Q519 489 519 477Q519 472 507 435T480 339T458 213L437 -10H367ZM374 559Q351
559 334 574T317 616Q317 646 337 663T383 681Q406 681 422 667T439 624Q439 596 420 578T374 559ZM213 559Q190 559 173 574T156 616Q156 646 176 663T222 681Q245 681 261 667T278 624Q278 596 259 578T213 559Z" />
<glyph unicode="&#xe5;" horiz-adv-x="534" d="M128 -16Q72 -16 48 29T24 157Q24 230 45 291T104 396T190 465T294 490Q337 490 372 479T433 455L404 350Q377 368 344 383T282 406T239 415Q211 415 188 388T151 312T137 200Q137 142 145 112T173 82Q186 82 217
111T292 210T385 397L413 308Q359 188 310 117T216 15T128 -16ZM367 -10Q347 -10 343 9T339 51Q339 68 343 93T355 147T370 204L392 279L363 305L387 456Q419 461 443 469T484 483T508 489Q519 489 519 477Q519 472 507 435T480 339T458 213L437 -10H367ZM296 526Q252
526 226 551T200 613Q200 651 228 679T302 707Q345 707 370 682T396 621Q396 582 368 554T296 526ZM297 572Q315 572 327 585T340 619Q340 640 329 650T301 661Q282 661 269 650T256 615Q256 596 268 584T297 572Z" />
<glyph unicode="&#xe6;" horiz-adv-x="715" d="M135 -16Q71 -16 41 16T11 91Q11 147 38 181T113 233T224 258T359 268L331 208Q247 203 203 194T141 169T124 126Q124 105 138 94T171 82Q203 82 229 105T273 162T302 233T312 296Q312 335 309 362T291 404T241 418Q198
418 174 405T137 387Q132 385 126 383T115 380Q102 380 95 396T87 432Q87 453 107 466T162 484T241 490Q289 490 328 474T389 426T408 349L392 387Q418 435 462 463T568 491Q632 491 664 461T696 376Q696 303 619 256T396 202L383 262Q442 262 489 275T563 312T591
365Q591 388 579 402T537 416Q497 416 469 387T427 310T413 206Q413 163 421 136T449 97T500 84Q541 84 577 98T638 129Q655 140 662 140Q667 140 670 136T673 127Q673 109 656 85T608 38T538 0T453 -16Q380 -16 345 25T307 133L323 152Q320 112 300 81T251 29T190
-4T135 -16Z" />
<glyph unicode="&#xe7;" horiz-adv-x="410" d="M184 -16Q105 -16 63 33T21 174Q21 264 56 336T153 449T294 491Q336 491 368 480T400 434Q400 419 395 404T382 379T366 369Q362 369 355 371T343 377Q332 384 317 393T283 409T244 416Q213 416 189 387T150 310T136
206Q136 132 158 108T224 83Q260 83 285 95T333 124Q342 130 347 131T356 133Q361 133 364 129T367 120Q367 102 352 79T311 34T253 -2T184 -16ZM151 20Q153 26 156 30T166 35L185 39Q193 41 197 37T199 24L172 -83L161 -44Q211 -44 247 -62T283 -119Q283 -147
268 -166T226 -197T169 -214T108 -220Q95 -220 90 -216T85 -205Q85 -191 92 -182T112 -172Q144 -168 170 -159T196 -125Q196 -113 188 -109T153 -101Q144 -99 136 -93T128 -72Q128 -68 129 -63T131 -53L151 20Z" />
<glyph unicode="&#xe8;" horiz-adv-x="442" d="M181 -16Q104 -16 62 32T20 166Q20 237 40 296T96 399T180 467T286 491Q354 491 390 462T426 379Q426 324 390 283T285 213T121 164L108 224Q163 231 209 248T283 293T311 361Q311 388 301 402T263 416Q222 416 194
386T151 308T136 206Q136 133 158 109T225 84Q271 84 305 98T365 129Q373 134 379 137T389 140Q394 140 397 136T400 127Q400 109 384 85T339 38T269 0T181 -16ZM366 551L236 687Q232 692 225 694T210 696Q198 696 186 688T165 666T156 635Q156 627 159 623T173
613L326 526Q332 523 338 523T348 522Q357 522 365 526T374 538Q374 541 372 544T366 551Z" />
<glyph unicode="&#xe9;" horiz-adv-x="442" d="M181 -16Q104 -16 62 32T20 166Q20 237 40 296T96 399T180 467T286 491Q354 491 390 462T426 379Q426 324 390 283T285 213T121 164L108 224Q163 231 209 248T283 293T311 361Q311 388 301 402T263 416Q222 416 194
386T151 308T136 206Q136 133 158 109T225 84Q271 84 305 98T365 129Q373 134 379 137T389 140Q394 140 397 136T400 127Q400 109 384 85T339 38T269 0T181 -16ZM135 551Q127 545 127 538Q127 531 135 527T153 522Q158 522 163 522T175 526L358 613Q368 618 371
622T375 635Q375 652 367 665T346 687T321 696Q307 696 296 687L135 551Z" />
<glyph unicode="&#xea;" horiz-adv-x="442" d="M181 -16Q104 -16 62 32T20 166Q20 237 40 296T96 399T180 467T286 491Q354 491 390 462T426 379Q426 324 390 283T285 213T121 164L108 224Q163 231 209 248T283 293T311 361Q311 388 301 402T263 416Q222 416 194
386T151 308T136 206Q136 133 158 109T225 84Q271 84 305 98T365 129Q373 134 379 137T389 140Q394 140 397 136T400 127Q400 109 384 85T339 38T269 0T181 -16ZM105 556V556Q98 549 100 544T112 537L149 533Q157 532 162 534T171 540L256 627L326 541Q331 536
337 532T360 528L398 530Q406 531 409 536T408 549L333 663Q320 683 308 689T273 695Q251 695 239 689T218 674L105 556Z" />
<glyph unicode="&#xeb;" horiz-adv-x="442" d="M181 -16Q104 -16 62 32T20 166Q20 237 40 296T96 399T180 467T286 491Q354 491 390 462T426 379Q426 324 390 283T285 213T121 164L108 224Q163 231 209 248T283 293T311 361Q311 388 301 402T263 416Q222 416 194
386T151 308T136 206Q136 133 158 109T225 84Q271 84 305 98T365 129Q373 134 379 137T389 140Q394 140 397 136T400 127Q400 109 384 85T339 38T269 0T181 -16ZM338 559Q315 559 298 574T281 616Q281 646 301 663T347 681Q370 681 386 667T403 624Q403 596 384
578T338 559ZM177 559Q154 559 137 574T120 616Q120 646 140 663T186 681Q209 681 225 667T242 624Q242 596 223 578T177 559Z" />
<glyph unicode="&#xec;" horiz-adv-x="232" d="M68 -16Q51 -16 46 3T41 44Q41 80 44 108T52 170L88 491H158Q178 491 184 469T190 419Q190 405 188 390T182 342L163 179Q157 127 152 92T144 32T138 -16H68ZM258 551L128 687Q124 692 117 694T102 696Q90 696 78
688T57 666T48 635Q48 627 51 623T65 613L218 526Q224 523 230 523T240 522Q249 522 257 526T266 538Q266 541 264 544T258 551Z" />
<glyph unicode="&#xed;" horiz-adv-x="232" d="M68 -16Q51 -16 46 3T41 44Q41 80 44 108T52 170L88 491H158Q178 491 184 469T190 419Q190 405 188 390T182 342L163 179Q157 127 152 92T144 32T138 -16H68ZM27 551Q19 545 19 538Q19 531 27 527T45 522Q50 522
55 522T67 526L250 613Q260 618 263 622T267 635Q267 652 259 665T238 687T213 696Q199 696 188 687L27 551Z" />
<glyph unicode="&#xee;" horiz-adv-x="232" d="M68 -16Q51 -16 46 3T41 44Q41 80 44 108T52 170L88 491H158Q178 491 184 469T190 419Q190 405 188 390T182 342L163 179Q157 127 152 92T144 32T138 -16H68ZM-3 556V556Q-10 549 -8 544T4 537L41 533Q49 532 54
534T63 540L148 627L218 541Q223 536 229 532T252 528L290 530Q298 531 301 536T300 549L225 663Q212 683 200 689T165 695Q143 695 131 689T110 674L-3 556Z" />
<glyph unicode="&#xef;" horiz-adv-x="232" d="M68 -16Q51 -16 46 3T41 44Q41 80 44 108T52 170L88 491H158Q178 491 184 469T190 419Q190 405 188 390T182 342L163 179Q157 127 152 92T144 32T138 -16H68ZM230 559Q207 559 190 574T173 616Q173 646 193 663T239
681Q262 681 278 667T295 624Q295 596 276 578T230 559ZM69 559Q46 559 29 574T12 616Q12 646 32 663T78 681Q101 681 117 667T134 624Q134 596 115 578T69 559Z" />
<glyph unicode="&#xf0;" horiz-adv-x="489" d="M208 -15Q150 -15 108 7T44 76T22 190Q22 252 41 306T93 402T167 467T251 491Q279 491 313 485T380 470T439 452L374 366Q342 383 305 398T223 414Q194 414 175 387T146 311T137 201Q137 60 228 60Q265 60 289 84T327
151T346 247T352 360Q352 428 340 477T299 559T219 613T90 646Q79 648 75 651T70 661Q70 668 85 675T124 687T176 692Q257 692 313 665T402 592T451 491T467 382Q467 251 433 163T340 30T208 -15ZM107 491Q95 487 91 492T84 508Q80 522 90 539T137 567L464 666Q476
670 480 666T486 654Q491 635 481 617T431 587L107 491Z" />
<glyph unicode="&#xf1;" horiz-adv-x="533" d="M362 -10Q351 -10 346 0T339 24T337 45Q337 59 339 81T344 127T350 170L367 274Q370 294 373 311T376 349Q376 364 370 372T354 380Q341 380 311 355T247 284T186 172T150 27L124 175Q154 262 191 322T268 419T343
473T408 490Q438 490 456 479T483 449T492 403Q492 378 489 354T481 303L433 -10H362ZM63 -14Q50 -14 44 -10T37 14T41 75L88 491H158Q173 491 185 469T197 419Q197 406 190 379T172 321T154 267L128 185L165 191L149 27Q148 17 137 9T111 -4T83 -11T63 -14ZM163
581Q163 605 172 627T197 663T237 677Q252 677 273 669T315 649T354 629T379 620Q389 620 393 630T402 655Q405 666 409 670T421 674Q438 674 447 669T456 646Q456 617 447 593T420 555T382 541Q354 541 329 555T281 583T239 598Q232 598 227 591T216 566Q213 555
209 551T195 547Q184 547 174 553T163 581Z" />
<glyph unicode="&#xf2;" horiz-adv-x="488" d="M202 -15Q116 -15 69 35T21 184Q21 249 42 304T101 402T186 467T289 491Q375 491 420 440T466 286Q466 224 446 170T389 74T305 9T202 -15ZM226 60Q264 60 291 88T333 165T348 275Q348 340 329 378T264 416Q227 416
199 388T155 312T139 201Q139 132 161 96T226 60ZM386 551L256 687Q252 692 245 694T230 696Q218 696 206 688T185 666T176 635Q176 627 179 623T193 613L346 526Q352 523 358 523T368 522Q377 522 385 526T394 538Q394 541 392 544T386 551Z" />
<glyph unicode="&#xf3;" horiz-adv-x="488" d="M202 -15Q116 -15 69 35T21 184Q21 249 42 304T101 402T186 467T289 491Q375 491 420 440T466 286Q466 224 446 170T389 74T305 9T202 -15ZM226 60Q264 60 291 88T333 165T348 275Q348 340 329 378T264 416Q227 416
199 388T155 312T139 201Q139 132 161 96T226 60ZM155 551Q147 545 147 538Q147 531 155 527T173 522Q178 522 183 522T195 526L378 613Q388 618 391 622T395 635Q395 652 387 665T366 687T341 696Q327 696 316 687L155 551Z" />
<glyph unicode="&#xf4;" horiz-adv-x="488" d="M202 -15Q116 -15 69 35T21 184Q21 249 42 304T101 402T186 467T289 491Q375 491 420 440T466 286Q466 224 446 170T389 74T305 9T202 -15ZM226 60Q264 60 291 88T333 165T348 275Q348 340 329 378T264 416Q227 416
199 388T155 312T139 201Q139 132 161 96T226 60ZM125 556V556Q118 549 120 544T132 537L169 533Q177 532 182 534T191 540L276 627L346 541Q351 536 357 532T380 528L418 530Q426 531 429 536T428 549L353 663Q340 683 328 689T293 695Q271 695 259 689T238 674L125
556Z" />
<glyph unicode="&#xf5;" horiz-adv-x="488" d="M202 -15Q116 -15 69 35T21 184Q21 249 42 304T101 402T186 467T289 491Q375 491 420 440T466 286Q466 224 446 170T389 74T305 9T202 -15ZM226 60Q264 60 291 88T333 165T348 275Q348 340 329 378T264 416Q227 416
199 388T155 312T139 201Q139 132 161 96T226 60ZM140 581Q140 605 149 627T174 663T214 677Q229 677 250 669T292 649T331 629T356 620Q366 620 370 630T379 655Q382 666 386 670T398 674Q415 674 424 669T433 646Q433 617 424 593T397 555T359 541Q331 541 306
555T258 583T216 598Q209 598 204 591T193 566Q190 555 186 551T172 547Q161 547 151 553T140 581Z" />
<glyph unicode="&#xf6;" horiz-adv-x="488" d="M202 -15Q116 -15 69 35T21 184Q21 249 42 304T101 402T186 467T289 491Q375 491 420 440T466 286Q466 224 446 170T389 74T305 9T202 -15ZM226 60Q264 60 291 88T333 165T348 275Q348 340 329 378T264 416Q227 416
199 388T155 312T139 201Q139 132 161 96T226 60ZM358 559Q335 559 318 574T301 616Q301 646 321 663T367 681Q390 681 406 667T423 624Q423 596 404 578T358 559ZM197 559Q174 559 157 574T140 616Q140 646 160 663T206 681Q229 681 245 667T262 624Q262 596 243
578T197 559Z" />
<glyph unicode="&#xf7;" horiz-adv-x="550" d="M499 327Q511 327 514 323T517 310Q517 297 511 284T489 263T445 254L61 246Q49 246 46 252T43 268Q43 278 50 289T72 308T111 317L499 327ZM281 373Q255 373 237 390T218 436Q218 470 239 488T290 507Q316 507 334
492T352 445Q352 415 331 394T281 373ZM281 57Q255 57 237 74T218 120Q218 154 239 172T290 191Q316 191 334 176T352 129Q352 99 331 78T281 57Z" />
<glyph unicode="&#xf8;" horiz-adv-x="489" d="M95 -169Q88 -172 77 -164T61 -146Q54 -124 72 -82L378 613Q382 622 388 623Q394 625 406 617T422 597Q429 576 409 532L105 -157Q102 -166 95 -169ZM202 -15Q116 -15 69 35T21 184Q21 249 42 304T101 402T186 467T289
491Q375 491 420 440T466 286Q466 224 446 170T389 74T305 9T202 -15ZM226 60Q264 60 291 88T333 165T348 275Q348 340 329 378T264 416Q227 416 199 388T155 312T139 201Q139 132 161 96T226 60Z" />
<glyph unicode="&#xf9;" horiz-adv-x="526" d="M126 -13Q87 -13 66 8T44 73Q44 88 44 103T47 139T54 193L92 491H162Q179 491 184 472T190 424Q190 403 187 369T178 294L166 212Q162 184 161 162T159 126Q159 106 163 96T181 85Q196 85 219 107T267 165T315 242T351
323T365 390Q365 413 360 428T355 454Q355 463 366 470T394 481T426 488T451 491Q468 491 477 471T483 414L436 -10H366Q354 -10 347 2T338 31T335 55Q335 78 341 105T360 174T391 282V265Q352 163 305 102T212 14T126 -13ZM405 551L275 687Q271 692 264 694T249
696Q237 696 225 688T204 666T195 635Q195 627 198 623T212 613L365 526Q371 523 377 523T387 522Q396 522 404 526T413 538Q413 541 411 544T405 551Z" />
<glyph unicode="&#xfa;" horiz-adv-x="526" d="M126 -13Q87 -13 66 8T44 73Q44 88 44 103T47 139T54 193L92 491H162Q179 491 184 472T190 424Q190 403 187 369T178 294L166 212Q162 184 161 162T159 126Q159 106 163 96T181 85Q196 85 219 107T267 165T315 242T351
323T365 390Q365 413 360 428T355 454Q355 463 366 470T394 481T426 488T451 491Q468 491 477 471T483 414L436 -10H366Q354 -10 347 2T338 31T335 55Q335 78 341 105T360 174T391 282V265Q352 163 305 102T212 14T126 -13ZM174 551Q166 545 166 538Q166 531 174
527T192 522Q197 522 202 522T214 526L397 613Q407 618 410 622T414 635Q414 652 406 665T385 687T360 696Q346 696 335 687L174 551Z" />
<glyph unicode="&#xfb;" horiz-adv-x="526" d="M126 -13Q87 -13 66 8T44 73Q44 88 44 103T47 139T54 193L92 491H162Q179 491 184 472T190 424Q190 403 187 369T178 294L166 212Q162 184 161 162T159 126Q159 106 163 96T181 85Q196 85 219 107T267 165T315 242T351
323T365 390Q365 413 360 428T355 454Q355 463 366 470T394 481T426 488T451 491Q468 491 477 471T483 414L436 -10H366Q354 -10 347 2T338 31T335 55Q335 78 341 105T360 174T391 282V265Q352 163 305 102T212 14T126 -13ZM144 556V556Q137 549 139 544T151 537L188
533Q196 532 201 534T210 540L295 627L365 541Q370 536 376 532T399 528L437 530Q445 531 448 536T447 549L372 663Q359 683 347 689T312 695Q290 695 278 689T257 674L144 556Z" />
<glyph unicode="&#xfc;" horiz-adv-x="526" d="M126 -13Q87 -13 66 8T44 73Q44 88 44 103T47 139T54 193L92 491H162Q179 491 184 472T190 424Q190 403 187 369T178 294L166 212Q162 184 161 162T159 126Q159 106 163 96T181 85Q196 85 219 107T267 165T315 242T351
323T365 390Q365 413 360 428T355 454Q355 463 366 470T394 481T426 488T451 491Q468 491 477 471T483 414L436 -10H366Q354 -10 347 2T338 31T335 55Q335 78 341 105T360 174T391 282V265Q352 163 305 102T212 14T126 -13ZM377 559Q354 559 337 574T320 616Q320
646 340 663T386 681Q409 681 425 667T442 624Q442 596 423 578T377 559ZM216 559Q193 559 176 574T159 616Q159 646 179 663T225 681Q248 681 264 667T281 624Q281 596 262 578T216 559Z" />
<glyph unicode="&#xfd;" horiz-adv-x="525" d="M169 -221Q126 -221 93 -208T41 -164T22 -84Q22 -74 25 -71T33 -67Q38 -67 45 -71T65 -83Q83 -95 106 -108T157 -132T210 -142Q236 -142 258 -126T299 -68T337 45L393 273L399 274Q362 176 314 113T216 19T126 -12Q84
-12 64 11T44 75Q44 95 46 119T55 194L92 491H162Q179 491 188 472T197 424Q197 404 195 389T190 354T180 298L166 212Q162 184 160 163T157 127Q157 106 161 96T182 85Q199 85 221 107T268 164T312 239T346 316T359 379Q359 396 356 415T353 450Q353 462 372 471T416
486T455 491Q469 491 477 478T486 429Q486 412 481 379T473 316L448 30Q442 -35 416 -82T349 -160T262 -206T169 -221ZM174 551Q166 545 166 538Q166 531 174 527T192 522Q197 522 202 522T214 526L397 613Q407 618 410 622T414 635Q414 652 406 665T385 687T360
696Q346 696 335 687L174 551Z" />
<glyph unicode="&#xfe;" horiz-adv-x="529" d="M235 -16Q192 -16 157 -5T96 19L128 117Q155 99 184 86T240 66T282 59Q313 59 338 86T377 163T392 274Q392 332 383 362T356 392Q344 392 311 365T231 269T132 77L110 166Q167 292 217 362T313 461T401 490Q463 490
484 443T505 317Q505 220 469 145T372 27T235 -16ZM58 -219Q42 -219 31 -208T15 -181T10 -150Q10 -137 10 -125T12 -95T18 -43L108 696H178Q190 696 200 686T216 661T222 634Q222 615 218 597T208 551L124 191H154L139 56L130 43L128 -219H58Z" />
<glyph unicode="&#xff;" horiz-adv-x="525" d="M169 -221Q126 -221 93 -208T41 -164T22 -84Q22 -74 25 -71T33 -67Q38 -67 45 -71T65 -83Q83 -95 106 -108T157 -132T210 -142Q236 -142 258 -126T299 -68T337 45L393 273L399 274Q362 176 314 113T216 19T126 -12Q84
-12 64 11T44 75Q44 95 46 119T55 194L92 491H162Q179 491 188 472T197 424Q197 404 195 389T190 354T180 298L166 212Q162 184 160 163T157 127Q157 106 161 96T182 85Q199 85 221 107T268 164T312 239T346 316T359 379Q359 396 356 415T353 450Q353 462 372 471T416
486T455 491Q469 491 477 478T486 429Q486 412 481 379T473 316L448 30Q442 -35 416 -82T349 -160T262 -206T169 -221ZM377 559Q354 559 337 574T320 616Q320 646 340 663T386 681Q409 681 425 667T442 624Q442 596 423 578T377 559ZM216 559Q193 559 176 574T159
616Q159 646 179 663T225 681Q248 681 264 667T281 624Q281 596 262 578T216 559Z" />
<glyph unicode="&#x2013;" horiz-adv-x="592" d="M48 221Q48 232 55 242T74 258T103 265H531Q543 265 543 249Q543 228 528 217T493 205H59Q52 205 50 209T48 221Z" />
<glyph unicode="&#x2014;" horiz-adv-x="702" d="M-1 221Q-1 232 4 242T20 258T44 265H690Q702 265 702 249Q702 228 682 217T642 205H10Q3 205 1 209T-1 221Z" />
<glyph unicode="&#x2018;" horiz-adv-x="220" d="M245 668Q245 662 242 659T233 653Q190 636 169 608T147 545Q147 535 150 526T171 488L115 533Q130 539 146 539Q175 539 194 520T214 470Q214 433 191 413T135 392Q99 392 81 418T62 483Q62 535 78 574T119 640T172
679T223 693Q232 693 238 685T245 668Z" />
<glyph unicode="&#x2019;" horiz-adv-x="220" d="M39 417Q39 423 42 426T51 432Q95 449 116 477T137 540Q137 551 134 560T113 597L169 552Q154 546 138 546Q110 546 90 565T70 615Q70 652 94 672T149 693Q185 693 203 667T222 602Q222 550 206 511T165 445T112
406T61 392Q52 392 46 400T39 417Z" />
<glyph unicode="&#x201a;" horiz-adv-x="215" d="M-20 -145Q-20 -139 -17 -136T-8 -130Q36 -113 57 -85T78 -22Q78 -11 75 -2T54 35L110 -10Q95 -16 79 -16Q51 -16 31 3T11 53Q11 90 35 110T90 131Q126 131 144 105T163 40Q163 -12 147 -51T106 -117T53 -156T2
-170Q-7 -170 -13 -162T-20 -145Z" />
<glyph unicode="&#x201c;" horiz-adv-x="407" d="M245 668Q245 662 242 659T233 653Q190 636 169 608T147 545Q147 535 150 526T171 488L115 533Q130 539 146 539Q175 539 194 520T214 470Q214 433 191 413T135 392Q99 392 81 418T62 483Q62 535 78 574T119 640T172
679T223 693Q232 693 238 685T245 668ZM432 668Q432 662 429 659T420 653Q377 636 356 608T334 545Q334 535 337 526T358 488L302 533Q317 539 333 539Q362 539 381 520T401 470Q401 433 378 413T322 392Q286 392 268 418T249 483Q249 535 265 574T306 640T359
679T410 693Q419 693 425 685T432 668Z" />
<glyph unicode="&#x201d;" horiz-adv-x="405" d="M39 417Q39 423 42 426T51 432Q95 449 116 477T137 540Q137 551 134 560T113 597L169 552Q154 546 138 546Q110 546 90 565T70 615Q70 652 94 672T149 693Q185 693 203 667T222 602Q222 550 206 511T165 445T112
406T61 392Q52 392 46 400T39 417ZM224 417Q224 423 227 426T236 432Q280 449 301 477T322 540Q322 551 319 560T298 597L354 552Q339 546 323 546Q295 546 275 565T255 615Q255 652 279 672T334 693Q370 693 388 667T407 602Q407 550 391 511T350 445T297 406T246
392Q237 392 231 400T224 417Z" />
<glyph unicode="&#x201e;" horiz-adv-x="400" d="M165 -145Q165 -139 168 -136T177 -130Q221 -113 242 -85T263 -22Q263 -11 260 -2T239 35L295 -10Q280 -16 264 -16Q236 -16 216 3T196 53Q196 90 220 110T275 131Q311 131 329 105T348 40Q348 -12 332 -51T291
-117T238 -156T187 -170Q178 -170 172 -162T165 -145ZM-20 -145Q-20 -139 -17 -136T-8 -130Q36 -113 57 -85T78 -22Q78 -11 75 -2T54 35L110 -10Q95 -16 79 -16Q51 -16 31 3T11 53Q11 90 35 110T90 131Q126 131 144 105T163 40Q163 -12 147 -51T106 -117T53 -156T2
-170Q-7 -170 -13 -162T-20 -145Z" />
<glyph unicode="&#x2022;" horiz-adv-x="288" d="M140 150Q96 150 65 179T33 257Q33 314 70 346T155 378Q199 378 229 352T260 272Q260 220 225 185T140 150Z" />
<glyph unicode="&#x2039;" horiz-adv-x="351" d="M317 428V428Q307 428 298 425T281 416L44 266Q34 259 30 253T25 240Q25 233 29 228T37 218L202 84Q219 70 230 64T252 58Q261 58 273 65T293 83T302 104Q302 110 300 115T291 125L143 242L211 286Q270 324 297
348T331 387T339 409Q339 419 333 423T317 428Z" />
<glyph unicode="&#x203a;" horiz-adv-x="351" d="M35 58V58Q45 58 54 61T71 70L308 220Q319 227 323 233T327 246Q327 253 324 258T315 268L150 402Q133 416 122 422T100 428Q91 428 80 421T59 403T50 382Q50 376 52 371T61 361L209 244L141 200Q82 162 55 138T21
100T13 77Q13 67 19 63T35 58Z" />
</font>
</defs>
</svg>
