<?xml version="1.0" encoding="UTF-8"?>
<svg width="446" height="488" version="1.1" viewBox="0 0 210 297" xmlns="http://www.w3.org/2000/svg" xmlns:xlink="http://www.w3.org/1999/xlink">
 <defs>
  <linearGradient id="linearGradient22433">
   <stop stop-color="#64ffda" offset="0"/>
   <stop stop-color="#233554" offset="1"/>
  </linearGradient>
  <linearGradient id="linearGradient16789" x1="778.83" x2="885.19" y1="445.8" y2="499.15" gradientUnits="userSpaceOnUse" xlink:href="#linearGradient22433"/>
  <linearGradient id="linearGradient17053" x1="723.74" x2="819.49" y1="612.13" y2="531.32" gradientUnits="userSpaceOnUse" xlink:href="#linearGradient22433"/>
  <linearGradient id="linearGradient17381" x1="725.55" x2="854.94" y1="515" y2="474.31" gradientUnits="userSpaceOnUse" xlink:href="#linearGradient22433"/>
  <linearGradient id="linearGradient18093" x1="751.87" x2="914.37" y1="461.78" y2="540.38" gradientUnits="userSpaceOnUse" xlink:href="#linearGradient22433"/>
  <linearGradient id="linearGradient18415" x1="788.15" x2="830.59" y1="533.02" y2="458.75" gradientUnits="userSpaceOnUse">
   <stop stop-color="#64ffda" offset="0"/>
   <stop stop-color="#4cbfa4" offset="1"/>
  </linearGradient>
  <linearGradient id="linearGradient19645" x1="153.37" x2="106.75" y1="93.445" y2="99.236" gradientTransform="matrix(4.3656 0 0 4.3656 -384.05 -92.784)" gradientUnits="userSpaceOnUse">
   <stop stop-color="#a8b2d1" offset="0"/>
   <stop stop-color="#233554" offset="1"/>
  </linearGradient>
  <linearGradient id="linearGradient20723" x1="71.389" x2="110.8" y1="100.14" y2="86.695" gradientTransform="matrix(4.3656 0 0 4.3656 -384.05 -92.784)" gradientUnits="userSpaceOnUse">
   <stop stop-color="#233554" offset="0"/>
   <stop stop-color="#a8b2d1" offset="1"/>
  </linearGradient>
 </defs>
 <g fill="url(#linearGradient20723)" stroke-width="1.5401" aria-label="Yuniel">
  <path d="m-64.882 308.03h5.0948l9.72 14.416 9.6495-14.416h5.0948l-12.396 18.36v16.693h-4.7661v-16.693z"/>
  <path d="m-36.849 332.7v-15.918h4.32v15.754q0 3.733 1.4556 5.6113 1.4556 1.8548 4.3669 1.8548 3.4982 0 5.5174-2.2304 2.0426-2.2304 2.0426-6.0808v-14.909h4.32v26.296h-4.32v-4.0382q-1.573 2.3948-3.6626 3.5687-2.0661 1.1504-4.813 1.1504-4.5313 0-6.8791-2.8174-2.3478-2.8174-2.3478-8.2408z"/>
  <path d="m15.93 327.21v15.871h-4.32v-15.73q0-3.733-1.4556-5.5878-1.4556-1.8548-4.3669-1.8548-3.4982 0-5.5174 2.2304-2.0191 2.2304-2.0191 6.0808v14.862h-4.3435v-26.296h4.3435v4.0852q1.5496-2.3713 3.6391-3.5452 2.113-1.1739 4.86-1.1739 4.5313 0 6.8556 2.8174 2.3243 2.7939 2.3243 8.2408z"/>
  <path d="m24.546 316.79h4.32v26.296h-4.32zm0-10.236h4.32v5.4704h-4.32z"/>
  <path d="m60.397 328.85v2.113h-19.863q0.28174 4.4608 2.6765 6.8087 2.4183 2.3243 6.7148 2.3243 2.4887 0 4.813-0.61043 2.3478-0.61044 4.6487-1.8313v4.0852q-2.3243 0.98608-4.7661 1.5026t-4.9539 0.51652q-6.2922 0-9.9782-3.6626-3.6626-3.6626-3.6626-9.9078 0-6.4565 3.4748-10.236 3.4982-3.8035 9.4147-3.8035 5.3061 0 8.3817 3.4278 3.0991 3.4043 3.0991 9.2739zm-4.32-1.2678q-0.04696-3.5452-1.9956-5.6582-1.9252-2.113-5.1182-2.113-3.6156 0-5.7991 2.0426-2.16 2.0426-2.4887 5.7522z"/>
  <path d="m67.488 306.55h4.32v36.532h-4.32z"/>
 </g>
 <g fill="url(#linearGradient19645)" stroke-width="1.5401" aria-label="Acosta">
  <path d="m117.42 336.7h-14.134l-2.2304 6.3861h-9.0861l12.983-35.053h10.776l12.983 35.053h-9.0861zm-11.88-6.5034h9.6026l-4.7895-13.946z"/>
  <path d="m154.24 317.61v6.8556q-1.7139-1.1739-3.4513-1.7374-1.7139-0.56348-3.5687-0.56348-3.5217 0-5.4939 2.0661-1.9487 2.0426-1.9487 5.7287 0 3.6861 1.9487 5.7522 1.9722 2.0426 5.4939 2.0426 1.9722 0 3.733-0.58695 1.7843-0.58696 3.2869-1.7374v6.8791q-1.9722 0.72782-4.0148 1.08-2.0191 0.37565-4.0617 0.37565-7.1139 0-11.129-3.6391-4.0148-3.6626-4.0148-10.166 0-6.5035 4.0148-10.143 4.0148-3.6626 11.129-3.6626 2.0661 0 4.0617 0.37565 2.0191 0.35217 4.0148 1.08z"/>
  <path d="m174.01 322.16q-2.7939 0-4.273 2.0191-1.4556 1.9956-1.4556 5.7756 0 3.78 1.4556 5.7991 1.4791 1.9956 4.273 1.9956 2.747 0 4.2026-1.9956 1.4556-2.0191 1.4556-5.7991 0-3.78-1.4556-5.7756-1.4556-2.0191-4.2026-2.0191zm0-6.0104q6.7852 0 10.589 3.6626 3.8269 3.6626 3.8269 10.143 0 6.48-3.8269 10.143-3.8035 3.6626-10.589 3.6626-6.8087 0-10.659-3.6626-3.8269-3.6626-3.8269-10.143 0-6.48 3.8269-10.143 3.8504-3.6626 10.659-3.6626z"/>
  <path d="m215.07 317.61v6.3861q-2.7-1.127-5.2122-1.6904-2.5122-0.56347-4.7426-0.56347-2.3948 0-3.5687 0.61043-1.1504 0.58695-1.1504 1.8313 0 1.0096 0.86869 1.5496 0.89217 0.54 3.1696 0.79826l1.4791 0.21131q6.4565 0.82173 8.6869 2.7 2.2304 1.8782 2.2304 5.893 0 4.2026-3.0991 6.3156-3.0991 2.113-9.2504 2.113-2.6061 0-5.4-0.4226-2.7704-0.39913-5.7052-1.2209v-6.3861q2.5122 1.2209 5.1417 1.8313 2.653 0.61044 5.3765 0.61044 2.4652 0 3.7096-0.68087t1.2443-2.0191q0-1.127-0.86869-1.667-0.84521-0.56348-3.4043-0.8687l-1.4791-0.18782q-5.6113-0.70435-7.8652-2.6061-2.2539-1.9017-2.2539-5.7756 0-4.1791 2.8643-6.1982 2.8643-2.0191 8.7808-2.0191 2.3243 0 4.8835 0.35217t5.5643 1.1035z"/>
  <path d="m232.33 309.32v7.4661h8.6634v6.0104h-8.6634v11.152q0 1.8313 0.72782 2.4887 0.72783 0.63391 2.8878 0.63391h4.32v6.0104h-7.2078q-4.9774 0-7.0669-2.0661-2.0661-2.0896-2.0661-7.0669v-11.152h-4.1791v-6.0104h4.1791v-7.4661z"/>
  <path d="m257.92 331.25q-2.6296 0-3.9678 0.89217-1.3148 0.89217-1.3148 2.6296 0 1.5965 1.0565 2.5122 1.08 0.89217 2.9817 0.89217 2.3713 0 3.9913-1.6904 1.62-1.7139 1.62-4.273v-0.9626zm12.843-3.1696v15.003h-8.4756v-3.8974q-1.6904 2.3948-3.8035 3.4982-2.113 1.08-5.1417 1.08-4.0852 0-6.6443-2.3713-2.5356-2.3948-2.5356-6.1982 0-4.6252 3.1696-6.7852 3.193-2.16 10.002-2.16h4.9539v-0.65738q0-1.9956-1.573-2.9113-1.573-0.93912-4.9069-0.93912-2.7 0-5.0243 0.53999-2.3243 0.54-4.32 1.62v-6.4095q2.7-0.65739 5.4234-0.98609 2.7235-0.35217 5.4469-0.35217 7.1139 0 10.26 2.8174 3.1696 2.7939 3.1696 9.1095z"/>
 </g>
 <g>
  <g transform="matrix(1.5401 0 0 -1.5401 -1139 993.18)" fill="url(#linearGradient18093)">
   <g fill="url(#linearGradient18093)">
    <g fill="url(#linearGradient18093)">
     <g fill="url(#linearGradient18093)">
      <path d="m787.67 607.41s15.792-14.853 28.424-25.911c12.632-11.053 26.319-27.363 30.004-33.155s15.792-21.057 1.047-46.848c-14.731-25.79-26.837-36.847-35.79-42.11-8.945-5.263-12.63-3.684-24.211-5.265 0 0 11.581-4.734 22.638-3.154 11.046 1.578 20.525 8.948 24.73 12.627 4.214 3.685 18.427 20.529 31.586 31.582 13.163 11.056 15.791 20.532 16.844 26.848 1.054 6.314 4.739 18.248-7.368 32.983-12.103 14.734-37.894 37.372-42.635 42.109-3.727 3.724-11.038 12.515-28.581 12.516-4.764 0-10.281-0.648-16.688-2.222" fill="url(#linearGradient18415)"/>
     </g>
    </g>
   </g>
  </g>
  <g transform="matrix(1.5401 0 0 -1.5401 -1139 993.18)" fill="url(#linearGradient17381)">
   <g fill="url(#linearGradient17381)">
    <g fill="url(#linearGradient17381)">
     <g fill="url(#linearGradient17381)">
      <path d="m776.72 602.9c-14.739-12.104-37.368-37.895-42.108-42.633-4.733-4.739-16.439-15.267-9.067-45.268 0 0 17.487 15.792 28.544 28.424 11.059 12.632 27.366 26.314 33.158 30.001 5.791 3.685 21.055 15.791 46.846 1.053 25.792-14.739 36.847-26.844 42.107-35.791 5.266-8.948 3.691-12.635 5.27-24.214 0 0 4.727 11.579 3.155 22.632-1.582 11.054-8.953 20.531-12.632 24.74-3.681 4.21-20.526 18.422-31.584 31.582-11.055 13.158-20.526 15.793-26.845 16.845-2.659 0.443-7.001 1.353-12.236 1.353-7.194 0-16.077-1.717-24.608-8.724" fill="url(#linearGradient17381)"/>
     </g>
    </g>
   </g>
  </g>
  <g transform="matrix(1.5401 0 0 -1.5401 -1139 993.18)" fill="url(#linearGradient17053)">
   <g fill="url(#linearGradient17053)">
    <g fill="url(#linearGradient17053)">
     <g fill="url(#linearGradient17053)">
      <path d="m796.86 611.68c-11.051-1.579-18.315-5.212-24.735-12.632-3.66-4.231-18.695-17.974-31.58-31.582-11.819-12.481-14.957-14.927-16.85-26.845-1-6.321-4.733-18.248 7.373-32.984 12.104-14.737 37.895-37.369 42.63-42.107 4.744-4.739 15.27-20.301 45.275-12.929 0 0-15.792 17.488-28.424 28.543-12.638 11.054-26.318 27.365-30.005 33.157-3.685 5.794-15.791 21.057-1.052 46.849 14.737 25.788 26.842 36.846 35.79 42.106 8.952 5.263 12.636 3.689 24.211 5.266 0 0-8.507 3.479-17.903 3.479-1.564 0-3.152-0.096-4.73-0.321" fill="url(#linearGradient17053)"/>
     </g>
    </g>
   </g>
  </g>
  <g transform="matrix(1.5401 0 0 -1.5401 -1139 993.18)" fill="url(#linearGradient16789)">
   <g fill="url(#linearGradient16789)">
    <g fill="url(#linearGradient16789)">
     <g fill="url(#linearGradient16789)">
      <path d="m722.68 524.54c1.578-11.052 8.95-20.528 12.631-24.739s20.527-18.419 31.583-31.583c11.052-13.158 20.526-15.793 26.845-16.843 6.314-1.053 22.111-4.738 36.844 7.369 14.736 12.106 37.374 37.895 42.108 42.636 4.739 4.738 18.642 19.448 9.382 44.727 0 0-17.801-15.251-28.854-27.883-11.059-12.632-27.369-26.317-33.165-30.001-5.791-3.686-21.056-15.793-46.847-1.055s-36.843 26.843-42.104 35.792c-5.264 8.946-3.987 13.731-5.568 25.311 0 0-4.431-12.679-2.855-23.731" fill="url(#linearGradient16789)"/>
     </g>
    </g>
   </g>
  </g>
 </g>
</svg>
